<?xml version="1.0" encoding="UTF-8" standalone="no"?>
<!-- Created with Inkscape (http://www.inkscape.org/) -->

<svg
   xmlns:dc="http://purl.org/dc/elements/1.1/"
   xmlns:cc="http://creativecommons.org/ns#"
   xmlns:rdf="http://www.w3.org/1999/02/22-rdf-syntax-ns#"
   xmlns:svg="http://www.w3.org/2000/svg"
   xmlns="http://www.w3.org/2000/svg"
   xmlns:xlink="http://www.w3.org/1999/xlink"
   xmlns:sodipodi="http://sodipodi.sourceforge.net/DTD/sodipodi-0.dtd"
   xmlns:inkscape="http://www.inkscape.org/namespaces/inkscape"
   width="96"
   height="96"
   id="svg6517"
   version="1.1"
   inkscape:version="0.48+devel r12505"
   sodipodi:docname="squid-cache.svg">
  <defs
     id="defs6519">
    <filter
       style="color-interpolation-filters:sRGB;"
       inkscape:label="Inner Shadow"
       id="filter1121">
      <feFlood
         flood-opacity="0.59999999999999998"
         flood-color="rgb(0,0,0)"
         result="flood"
         id="feFlood1123" />
      <feComposite
         in="flood"
         in2="SourceGraphic"
         operator="out"
         result="composite1"
         id="feComposite1125" />
      <feGaussianBlur
         in="composite1"
         stdDeviation="1"
         result="blur"
         id="feGaussianBlur1127" />
      <feOffset
         dx="0"
         dy="2"
         result="offset"
         id="feOffset1129" />
      <feComposite
         in="offset"
         in2="SourceGraphic"
         operator="atop"
         result="composite2"
         id="feComposite1131" />
    </filter>
    <filter
       style="color-interpolation-filters:sRGB;"
       inkscape:label="Drop Shadow"
       id="filter950">
      <feFlood
         flood-opacity="0.25"
         flood-color="rgb(0,0,0)"
         result="flood"
         id="feFlood952" />
      <feComposite
         in="flood"
         in2="SourceGraphic"
         operator="in"
         result="composite1"
         id="feComposite954" />
      <feGaussianBlur
         in="composite1"
         stdDeviation="1"
         result="blur"
         id="feGaussianBlur956" />
      <feOffset
         dx="0"
         dy="1"
         result="offset"
         id="feOffset958" />
      <feComposite
         in="SourceGraphic"
         in2="offset"
         operator="over"
         result="composite2"
         id="feComposite960" />
    </filter>
    <filter
       inkscape:collect="always"
       id="filter891"
       inkscape:label="Badge Shadow">
      <feGaussianBlur
         inkscape:collect="always"
         stdDeviation="0.71999962"
         id="feGaussianBlur893" />
    </filter>
    <filter
       height="1.6591635"
       y="-0.32958177"
       width="1.7932079"
       x="-0.39660394"
       id="filter4316"
       inkscape:collect="always">
      <feGaussianBlur
         id="feGaussianBlur4318"
         stdDeviation="1.591987"
         inkscape:collect="always" />
    </filter>
    <filter
       height="1.192"
       y="-0.096000001"
       width="1.192"
       x="-0.096000001"
       id="filter4355"
       inkscape:collect="always">
      <feGaussianBlur
         id="feGaussianBlur4357"
         stdDeviation="0.58895659"
         inkscape:collect="always" />
    </filter>
    <filter
       height="1.3296711"
       y="-0.16483553"
       width="1.188679"
       x="-0.094339505"
       id="filter4423"
       inkscape:collect="always">
      <feGaussianBlur
         id="feGaussianBlur4425"
         stdDeviation="0.6575494"
         inkscape:collect="always" />
    </filter>
    <filter
       height="1.2081455"
       y="-0.10407273"
       width="1.1100769"
       x="-0.055038461"
       id="filter4727"
       inkscape:collect="always">
      <feGaussianBlur
         id="feGaussianBlur4729"
         stdDeviation="1.9449577"
         inkscape:collect="always" />
    </filter>
    <filter
       height="1.2229152"
       y="-0.1114576"
       width="1.1347936"
       x="-0.067396788"
       id="filter4756"
       inkscape:collect="always">
      <feGaussianBlur
         id="feGaussianBlur4758"
         stdDeviation="2.4366067"
         inkscape:collect="always" />
    </filter>
    <filter
       height="1.2339238"
       y="-0.11696188"
       width="1.1310639"
       x="-0.065531962"
       id="filter4762"
       inkscape:collect="always">
      <feGaussianBlur
         id="feGaussianBlur4764"
         stdDeviation="2.204443"
         inkscape:collect="always" />
    </filter>
    <filter
       height="1.2938571"
       y="-0.14692857"
       width="1.2396505"
       x="-0.11982524"
       id="filter4842"
       inkscape:collect="always">
      <feGaussianBlur
         id="feGaussianBlur4844"
         stdDeviation="0.67099002"
         inkscape:collect="always" />
    </filter>
    <filter
       height="1.267661"
       y="-0.13383051"
       width="1.1496872"
       x="-0.074843602"
       id="filter4878"
       inkscape:collect="always">
      <feGaussianBlur
         id="feGaussianBlur4880"
         stdDeviation="1.3414907"
         inkscape:collect="always" />
    </filter>
    <filter
       height="1.1367442"
       y="-0.068372093"
       width="1.0739623"
       x="-0.036981132"
       id="filter4884"
       inkscape:collect="always">
      <feGaussianBlur
         id="feGaussianBlur4886"
         stdDeviation="0.99898246"
         inkscape:collect="always" />
    </filter>
    <filter
       height="1.2074345"
       y="-0.10371727"
       width="1.1102768"
       x="-0.055138398"
       id="filter4928"
       inkscape:collect="always">
      <feGaussianBlur
         id="feGaussianBlur4930"
         stdDeviation="1.8313925"
         inkscape:collect="always" />
    </filter>
    <filter
       height="1.1822857"
       y="-0.091142852"
       width="1.0894393"
       x="-0.044719627"
       id="filter4962"
       inkscape:collect="always">
      <feGaussianBlur
         id="feGaussianBlur4964"
         stdDeviation="0.81294741"
         inkscape:collect="always" />
    </filter>
    <filter
       height="1.0684771"
       y="-0.034238532"
       width="1.0369505"
       x="-0.018475248"
       id="filter4980"
       inkscape:collect="always">
      <feGaussianBlur
         id="feGaussianBlur4982"
         stdDeviation="0.63404806"
         inkscape:collect="always" />
    </filter>
    <filter
       height="1.1421972"
       y="-0.071098591"
       width="1.0724593"
       x="-0.036229665"
       id="filter5014"
       inkscape:collect="always">
      <feGaussianBlur
         id="feGaussianBlur5016"
         stdDeviation="1.2864448"
         inkscape:collect="always" />
    </filter>
    <filter
       height="1.2166729"
       y="-0.10833645"
       width="1.1078326"
       x="-0.053916279"
       id="filter5052"
       inkscape:collect="always">
      <feGaussianBlur
         id="feGaussianBlur5054"
         stdDeviation="0.98471128"
         inkscape:collect="always" />
    </filter>
    <filter
       height="1.1101202"
       y="-0.055060109"
       width="1.0534851"
       x="-0.026742554"
       id="filter5066"
       inkscape:collect="always">
      <feGaussianBlur
         id="feGaussianBlur5068"
         stdDeviation="0.61627025"
         inkscape:collect="always" />
    </filter>
    <filter
       height="1.3084375"
       y="-0.15421875"
       width="1.1154386"
       x="-0.057719299"
       id="filter5128"
       inkscape:collect="always">
      <feGaussianBlur
         id="feGaussianBlur5130"
         stdDeviation="0.34342163"
         inkscape:collect="always" />
    </filter>
    <filter
       height="1.271688"
       y="-0.135844"
       width="1.1215943"
       x="-0.060797153"
       id="filter5254"
       inkscape:collect="always">
      <feGaussianBlur
         id="feGaussianBlur5256"
         stdDeviation="0.89657"
         inkscape:collect="always" />
    </filter>
    <filter
       height="1.2861023"
       y="-0.14305117"
       width="1.2066935"
       x="-0.10334677"
       id="filter5260"
       inkscape:collect="always">
      <feGaussianBlur
         id="feGaussianBlur5262"
         stdDeviation="1.1813088"
         inkscape:collect="always" />
    </filter>
    <filter
       height="1.1678395"
       y="-0.083919731"
       width="1.1260905"
       x="-0.063045227"
       id="filter5314"
       inkscape:collect="always">
      <feGaussianBlur
         id="feGaussianBlur5316"
         stdDeviation="1.0913292"
         inkscape:collect="always" />
    </filter>
    <filter
       height="1.1512575"
       y="-0.075628747"
       width="1.0994488"
       x="-0.049724408"
       id="filter5361"
       inkscape:collect="always">
      <feGaussianBlur
         id="feGaussianBlur5363"
         stdDeviation="0.85830939"
         inkscape:collect="always" />
    </filter>
    <filter
       height="1.2177609"
       y="-0.10888045"
       width="1.4251246"
       x="-0.21256228"
       id="filter5418"
       inkscape:collect="always">
      <feGaussianBlur
         id="feGaussianBlur5420"
         stdDeviation="1.0803968"
         inkscape:collect="always" />
    </filter>
    <linearGradient
       inkscape:collect="always"
       id="linearGradient902">
      <stop
         style="stop-color:#ff9200;stop-opacity:1"
         offset="0"
         id="stop904" />
      <stop
         style="stop-color:#ffcc00;stop-opacity:1"
         offset="1"
         id="stop906" />
    </linearGradient>
    <linearGradient
       id="Background">
      <stop
         id="stop4178"
         offset="0"
         style="stop-color:#22779e;stop-opacity:1" />
      <stop
         id="stop4180"
         offset="1"
         style="stop-color:#2991c0;stop-opacity:1" />
    </linearGradient>
    <clipPath
       clipPathUnits="userSpaceOnUse"
       id="clipPath873">
      <g
         transform="matrix(0,-0.66666667,0.66604479,0,-258.25992,677.00001)"
         id="g875"
         inkscape:label="Layer 1"
         style="fill:#ff00ff;fill-opacity:1;stroke:none;display:inline">
        <path
           style="fill:#ff00ff;fill-opacity:1;stroke:none;display:inline"
           d="m 46.702703,898.22775 50.594594,0 C 138.16216,898.22775 144,904.06497 144,944.92583 l 0,50.73846 c 0,40.86071 -5.83784,46.69791 -46.702703,46.69791 l -50.594594,0 C 5.8378378,1042.3622 0,1036.525 0,995.66429 L 0,944.92583 C 0,904.06497 5.8378378,898.22775 46.702703,898.22775 Z"
           id="path877"
           inkscape:connector-curvature="0"
           sodipodi:nodetypes="sssssssss" />
      </g>
    </clipPath>
    <style
       id="style867"
       type="text/css"><![CDATA[
    .fil0 {fill:#1F1A17}
   ]]></style>
    <linearGradient
       inkscape:collect="always"
       xlink:href="#linearGradient902"
       id="linearGradient908"
       x1="-220"
       y1="731.29077"
       x2="-220"
       y2="635.29077"
       gradientUnits="userSpaceOnUse" />
    <clipPath
       id="clipPath16">
      <path
         id="path18"
         d="m -9,-9 614,0 0,231 -614,0 0,-231 z" />
    </clipPath>
    <clipPath
       id="clipPath116">
      <path
         id="path118"
         d="m 91.7368,146.3253 -9.7039,-1.577 -8.8548,-3.8814 -7.5206,-4.7308 -7.1566,-8.7335 -4.0431,-4.282 -3.9093,-1.4409 -1.034,2.5271 1.8079,2.6096 0.4062,3.6802 1.211,-0.0488 1.3232,-1.2069 -0.3569,3.7488 -1.4667,0.9839 0.0445,1.4286 -3.4744,-1.9655 -3.1462,-3.712 -0.6559,-3.3176 1.3453,-2.6567 1.2549,-4.5133 2.5521,-1.2084 2.6847,0.1318 2.5455,1.4791 -1.698,-8.6122 1.698,-9.5825 -1.8692,-4.4246 -6.1223,-6.5965 1.0885,-3.941 2.9002,-4.5669 5.4688,-3.8486 2.9007,-0.3969 3.225,-0.1094 -2.012,-8.2601 7.3993,-3.0326 9.2188,-1.2129 3.1535,2.0619 0.2427,5.5797 3.5178,5.8224 0.2426,4.6094 8.4909,-0.6066 7.8843,0.7279 -7.8843,-4.7307 1.3343,-5.701 4.9731,-7.763 4.8521,-2.0622 3.8814,1.5769 1.577,3.1538 8.1269,6.1861 1.5769,-1.3343 12.7363,-0.485 2.5473,2.0619 0.2426,3.6391 -0.849,1.5767 -0.6066,9.8251 -4.2454,8.4909 0.7276,3.7605 2.5475,-1.3343 7.1566,-6.6716 3.5175,-0.2424 3.8815,1.5769 3.8818,2.9109 1.9406,6.3077 11.4021,-0.7277 6.914,2.6686 5.5797,5.2157 4.0028,7.5206 0.9706,8.8546 -0.8493,10.3105 -2.1832,9.2185 -2.1836,2.9112 -3.0322,0.9706 -5.3373,-5.8224 -4.8518,-1.6982 -4.2455,7.0353 -4.2454,3.8815 -2.3049,1.4556 -9.2185,7.6419 -7.3993,4.0028 -7.3993,0.6066 -8.6119,-1.4556 -7.5206,-2.7899 -5.2158,-4.2454 -4.1241,-4.9734 -4.2454,-1.2129" />
    </clipPath>
    <clipPath
       id="clipPath128">
      <path
         id="path130"
         d="m 91.7368,146.3253 -9.7039,-1.577 -8.8548,-3.8814 -7.5206,-4.7308 -7.1566,-8.7335 -4.0431,-4.282 -3.9093,-1.4409 -1.034,2.5271 1.8079,2.6096 0.4062,3.6802 1.211,-0.0488 1.3232,-1.2069 -0.3569,3.7488 -1.4667,0.9839 0.0445,1.4286 -3.4744,-1.9655 -3.1462,-3.712 -0.6559,-3.3176 1.3453,-2.6567 1.2549,-4.5133 2.5521,-1.2084 2.6847,0.1318 2.5455,1.4791 -1.698,-8.6122 1.698,-9.5825 -1.8692,-4.4246 -6.1223,-6.5965 1.0885,-3.941 2.9002,-4.5669 5.4688,-3.8486 2.9007,-0.3969 3.225,-0.1094 -2.012,-8.2601 7.3993,-3.0326 9.2188,-1.2129 3.1535,2.0619 0.2427,5.5797 3.5178,5.8224 0.2426,4.6094 8.4909,-0.6066 7.8843,0.7279 -7.8843,-4.7307 1.3343,-5.701 4.9731,-7.763 4.8521,-2.0622 3.8814,1.5769 1.577,3.1538 8.1269,6.1861 1.5769,-1.3343 12.7363,-0.485 2.5473,2.0619 0.2426,3.6391 -0.849,1.5767 -0.6066,9.8251 -4.2454,8.4909 0.7276,3.7605 2.5475,-1.3343 7.1566,-6.6716 3.5175,-0.2424 3.8815,1.5769 3.8818,2.9109 1.9406,6.3077 11.4021,-0.7277 6.914,2.6686 5.5797,5.2157 4.0028,7.5206 0.9706,8.8546 -0.8493,10.3105 -2.1832,9.2185 -2.1836,2.9112 -3.0322,0.9706 -5.3373,-5.8224 -4.8518,-1.6982 -4.2455,7.0353 -4.2454,3.8815 -2.3049,1.4556 -9.2185,7.6419 -7.3993,4.0028 -7.3993,0.6066 -8.6119,-1.4556 -7.5206,-2.7899 -5.2158,-4.2454 -4.1241,-4.9734 -4.2454,-1.2129" />
    </clipPath>
    <filter
       height="1.1953982"
       y="-0.097699106"
       width="1.310986"
       x="-0.15549298"
       id="filter5476"
       inkscape:collect="always">
      <feGaussianBlur
         id="feGaussianBlur5478"
         stdDeviation="0.48016408"
         inkscape:collect="always" />
    </filter>
    <linearGradient
       id="linearGradient5318"
       inkscape:collect="always">
      <stop
         id="stop5320"
         offset="0"
         style="stop-color:#ffffff;stop-opacity:1;" />
      <stop
         id="stop5322"
         offset="1"
         style="stop-color:#ffffff;stop-opacity:0;" />
    </linearGradient>
    <linearGradient
       id="linearGradient4888"
       inkscape:collect="always">
      <stop
         id="stop4890"
         offset="0"
         style="stop-color:#e4ffff;stop-opacity:1;" />
      <stop
         style="stop-color:#ffffff;stop-opacity:1"
         offset="0.27682471"
         id="stop4896" />
      <stop
         id="stop4892"
         offset="1"
         style="stop-color:#3ad3ff;stop-opacity:0.66975307" />
    </linearGradient>
    <linearGradient
       id="linearGradient4605"
       inkscape:collect="always">
      <stop
         id="stop4607"
         offset="0"
         style="stop-color:#00a6ae;stop-opacity:1;" />
      <stop
         id="stop4609"
         offset="1"
         style="stop-color:#30bed6;stop-opacity:1" />
    </linearGradient>
    <linearGradient
       id="linearGradient4595"
       inkscape:collect="always">
      <stop
         id="stop4597"
         offset="0"
         style="stop-color:#fde20a;stop-opacity:1" />
      <stop
         style="stop-color:#faac16;stop-opacity:1"
         offset="0.478598"
         id="stop4603" />
      <stop
         id="stop4599"
         offset="1"
         style="stop-color:#f8921a;stop-opacity:1" />
    </linearGradient>
    <clipPath
       id="clipPath4296"
       clipPathUnits="userSpaceOnUse">
      <path
         transform="matrix(1.6953846,0,0,1.6953846,-95.06997,-43.304227)"
         d="m 54.179198,62.984692 a 4.3423524,4.3423524 0 1 1 -8.684705,0 4.3423524,4.3423524 0 1 1 8.684705,0 z"
         sodipodi:ry="4.3423524"
         sodipodi:rx="4.3423524"
         sodipodi:cy="62.984692"
         sodipodi:cx="49.836845"
         id="path4298"
         style="color:#000000;fill:#ff00ff;fill-opacity:1;stroke:none;stroke-width:1;marker:none;visibility:visible;display:inline;overflow:visible;enable-background:accumulate"
         sodipodi:type="arc" />
    </clipPath>
    <clipPath
       id="clipPath4327"
       clipPathUnits="userSpaceOnUse">
      <path
         transform="matrix(1.6953846,0,0,1.6953846,-95.06997,-43.304227)"
         d="m 54.179198,62.984692 a 4.3423524,4.3423524 0 1 1 -8.684705,0 4.3423524,4.3423524 0 1 1 8.684705,0 z"
         sodipodi:ry="4.3423524"
         sodipodi:rx="4.3423524"
         sodipodi:cy="62.984692"
         sodipodi:cx="49.836845"
         id="path4329"
         style="color:#000000;fill:#ff00ff;fill-opacity:1;stroke:none;stroke-width:1;marker:none;visibility:visible;display:inline;overflow:visible;enable-background:accumulate"
         sodipodi:type="arc" />
    </clipPath>
    <clipPath
       id="clipPath4375"
       clipPathUnits="userSpaceOnUse">
      <path
         sodipodi:type="arc"
         style="color:#000000;fill:#ff00ff;fill-opacity:1;stroke:none;stroke-width:1.84735239;marker:none;visibility:visible;display:inline;overflow:visible;enable-background:accumulate"
         id="path4377"
         sodipodi:cx="46.179249"
         sodipodi:cy="63.803059"
         sodipodi:rx="11.440429"
         sodipodi:ry="11.440429"
         d="m 57.619678,63.803059 a 11.440429,11.440429 0 1 1 -22.880858,0 11.440429,11.440429 0 1 1 22.880858,0 z"
         transform="matrix(1.0826305,0,0,1.0826305,-71.853406,-3.5601908)" />
    </clipPath>
    <clipPath
       id="clipPath4296-4"
       clipPathUnits="userSpaceOnUse">
      <path
         transform="matrix(1.6953846,0,0,1.6953846,-95.06997,-43.304227)"
         d="m 54.179198,62.984692 a 4.3423524,4.3423524 0 1 1 -8.684705,0 4.3423524,4.3423524 0 1 1 8.684705,0 z"
         sodipodi:ry="4.3423524"
         sodipodi:rx="4.3423524"
         sodipodi:cy="62.984692"
         sodipodi:cx="49.836845"
         id="path4298-0"
         style="color:#000000;fill:#ff00ff;fill-opacity:1;stroke:none;stroke-width:1;marker:none;visibility:visible;display:inline;overflow:visible;enable-background:accumulate"
         sodipodi:type="arc" />
    </clipPath>
    <clipPath
       id="clipPath4327-6"
       clipPathUnits="userSpaceOnUse">
      <path
         transform="matrix(1.6953846,0,0,1.6953846,-95.06997,-43.304227)"
         d="m 54.179198,62.984692 a 4.3423524,4.3423524 0 1 1 -8.684705,0 4.3423524,4.3423524 0 1 1 8.684705,0 z"
         sodipodi:ry="4.3423524"
         sodipodi:rx="4.3423524"
         sodipodi:cy="62.984692"
         sodipodi:cx="49.836845"
         id="path4329-2"
         style="color:#000000;fill:#ff00ff;fill-opacity:1;stroke:none;stroke-width:1;marker:none;visibility:visible;display:inline;overflow:visible;enable-background:accumulate"
         sodipodi:type="arc" />
    </clipPath>
    <clipPath
       id="clipPath4375-1"
       clipPathUnits="userSpaceOnUse">
      <path
         sodipodi:type="arc"
         style="color:#000000;fill:#ff00ff;fill-opacity:1;stroke:none;stroke-width:1.84735239;marker:none;visibility:visible;display:inline;overflow:visible;enable-background:accumulate"
         id="path4377-3"
         sodipodi:cx="46.179249"
         sodipodi:cy="63.803059"
         sodipodi:rx="11.440429"
         sodipodi:ry="11.440429"
         d="m 57.619678,63.803059 a 11.440429,11.440429 0 1 1 -22.880858,0 11.440429,11.440429 0 1 1 22.880858,0 z"
         transform="matrix(1.0826305,0,0,1.0826305,-71.853406,-3.5601908)" />
    </clipPath>
    <linearGradient
       gradientTransform="translate(10,0)"
       gradientUnits="userSpaceOnUse"
       y2="9.8841219"
       x2="142.27451"
       y1="61.489723"
       x1="66.734573"
       id="linearGradient4611"
       xlink:href="#linearGradient4605"
       inkscape:collect="always" />
    <linearGradient
       gradientTransform="translate(-100,50)"
       gradientUnits="userSpaceOnUse"
       y2="104.79355"
       x2="89.565689"
       y1="90.777214"
       x1="56.214554"
       id="linearGradient4619"
       xlink:href="#linearGradient4605"
       inkscape:collect="always" />
    <linearGradient
       gradientTransform="translate(10,0)"
       gradientUnits="userSpaceOnUse"
       y2="105.84206"
       x2="66.504166"
       y1="92.78138"
       x1="42.143345"
       id="linearGradient4627"
       xlink:href="#linearGradient4605"
       inkscape:collect="always" />
    <clipPath
       id="clipPath4744"
       clipPathUnits="userSpaceOnUse">
      <path
         style="color:#000000;fill:#ff00ff;fill-opacity:1;fill-rule:nonzero;stroke:none;stroke-width:5;marker:none;visibility:visible;display:inline;overflow:visible;enable-background:accumulate"
         d="m -61.36328,5.5722656 c -1.39719,0 -2.5293,1.1321042 -2.5293,2.5292969 0,1.3971927 1.13211,2.5312495 2.5293,2.5312495 1.39719,0 2.5293,-1.1340568 2.5293,-2.5312495 0,-1.3971927 -1.13211,-2.5292969 -2.5293,-2.5292969 z M -70.8125,7.625 c -1.65694,0 -3,1.3430621 -3,3 0,1.656938 1.34306,3 3,3 1.65694,0 3,-1.343062 3,-3 0,-1.6569379 -1.34306,-3 -3,-3 z m -10.304688,2.3085938 c -1.916683,0 -3.470703,1.5540202 -3.470703,3.4707032 0,1.916683 1.55402,3.470703 3.470703,3.470703 1.916688,0 3.470708,-1.55402 3.470708,-3.470703 0,-1.916683 -1.55402,-3.4707032 -3.470708,-3.4707032 z m -11.902343,4.8261722 c -2.325487,0 -4.208985,1.885451 -4.208985,4.210937 0,2.325487 1.883498,4.210938 4.208985,4.210938 2.325486,0 4.210937,-1.885451 4.210937,-4.210938 0,-2.325486 -1.885451,-4.210937 -4.210937,-4.210937 z m 42.087891,0.77539 c -1.09022,0 -1.97266,0.882435 -1.97266,1.972656 0,1.090222 0.88244,1.97461 1.97266,1.97461 1.09022,0 1.97461,-0.884388 1.97461,-1.97461 0,-1.090221 -0.88439,-1.972656 -1.97461,-1.972656 z m -7.35352,3.078125 c -1.65693,0 -3,1.343062 -3,3 0,1.656938 1.34307,3 3,3 1.65694,0 3,-1.343062 3,-3 0,-1.656938 -1.34306,-3 -3,-3 z m -45.5,2.435547 c -2.30464,0 -4.17187,1.867227 -4.17187,4.171875 0,2.304648 1.86723,4.173828 4.17187,4.173828 2.30465,0 4.173832,-1.86918 4.173832,-4.173828 0,-2.304648 -1.869182,-4.171875 -4.173832,-4.171875 z m 35.02539,2.181641 c -2.24726,0 -4.07031,1.821091 -4.07031,4.068359 0,2.247268 1.82305,4.070313 4.07031,4.070313 2.24727,0 4.06836,-1.823045 4.06836,-4.070313 0,-2.247268 -1.82109,-4.068359 -4.06836,-4.068359 z m 14.72852,5.503906 c -0.97216,0 -1.75977,0.789563 -1.75977,1.761719 0,0.972155 0.78761,1.759765 1.75977,1.759765 0.97216,0 1.75977,-0.78761 1.75977,-1.759765 0,-0.972156 -0.78761,-1.761719 -1.75977,-1.761719 z m -27.681641,0.07227 c -2.758021,0 -4.99414,2.236119 -4.99414,4.99414 0,2.758021 2.236119,4.994141 4.99414,4.994141 2.758021,0 4.994141,-2.23612 4.994141,-4.994141 0,-2.758021 -2.23612,-4.99414 -4.994141,-4.99414 z m -32.175779,0.01367 c -1.90795,0 -3.45508,1.545179 -3.45508,3.453126 0,1.907946 1.54713,3.455078 3.45508,3.455078 1.90794,0 3.45312,-1.547132 3.45312,-3.455078 0,-1.907947 -1.54518,-3.453126 -3.45312,-3.453126 z m 53.62695,5.238282 c -1.92259,0 -3.48242,1.557882 -3.48242,3.480468 0,1.922587 1.55983,3.482422 3.48242,3.482422 1.92259,0 3.48047,-1.559835 3.48047,-3.482422 0,-1.922586 -1.55788,-3.480468 -3.48047,-3.480468 z m -61.21484,2.214844 c -1.30345,0 -2.35938,1.055926 -2.35938,2.359374 0,1.303449 1.05593,2.359376 2.35938,2.359376 1.30345,0 2.36133,-1.055927 2.36133,-2.359376 0,-1.303448 -1.05788,-2.359374 -2.36133,-2.359374 z m 26.376951,0.652343 c -2.436882,0 -4.41211,1.975228 -4.41211,4.41211 0,2.436881 1.975228,4.412109 4.41211,4.412109 2.436881,0 4.412109,-1.975228 4.412109,-4.412109 0,-2.436882 -1.975228,-4.41211 -4.412109,-4.41211 z m 27.195309,4.347657 c -2.3063,0 -4.17773,1.86948 -4.17773,4.175781 0,2.3063 1.87143,4.175781 4.17773,4.175781 2.3063,0 4.17578,-1.869481 4.17578,-4.175781 0,-2.306301 -1.86948,-4.175781 -4.17578,-4.175781 z m -38.55273,3.158203 c -1.77193,0 -3.20899,1.435097 -3.20899,3.207031 0,1.771934 1.43706,3.208984 3.20899,3.208984 1.77193,0 3.20898,-1.43705 3.20898,-3.208984 0,-1.771934 -1.43705,-3.207031 -3.20898,-3.207031 z m 27.91797,4.167968 c -2.342431,0 -4.24219,1.897806 -4.24219,4.240235 0,2.342429 1.899759,4.242187 4.24219,4.242187 2.34243,0 4.24023,-1.899758 4.24023,-4.242187 0,-2.342429 -1.8978,-4.240235 -4.24023,-4.240235 z m -36.4043,2.140625 c -1.07676,0 -1.94922,0.874411 -1.94922,1.951172 0,1.076762 0.87246,1.949219 1.94922,1.949219 1.07676,0 1.94922,-0.872457 1.94922,-1.949219 0,-1.076761 -0.87246,-1.951172 -1.94922,-1.951172 z m 25.388672,3.638672 c -2.040179,0 -3.693359,1.655133 -3.693359,3.695313 0,2.04018 1.65318,3.693359 3.693359,3.693359 2.04018,0 3.695313,-1.653179 3.695313,-3.693359 0,-2.04018 -1.655133,-3.695313 -3.695313,-3.695313 z M -100.54297,58.5293 c -1.62081,0 -2.93359,1.314737 -2.93359,2.935547 0,1.620809 1.31278,2.935547 2.93359,2.935547 1.620811,0 2.935548,-1.314738 2.935548,-2.935547 0,-1.62081 -1.314737,-2.935547 -2.935548,-2.935547 z m -8.55078,1.617187 c -1.03898,0 -1.88086,0.843832 -1.88086,1.882813 0,1.03898 0.84188,1.880859 1.88086,1.880859 1.03898,0 1.88086,-0.841879 1.88086,-1.880859 0,-1.038981 -0.84188,-1.882813 -1.88086,-1.882813 z"
         id="path4746"
         inkscape:connector-curvature="0" />
    </clipPath>
    <linearGradient
       gradientUnits="userSpaceOnUse"
       y2="39.94598"
       x2="1.4735259"
       y1="30.160028"
       x1="-4.2457867"
       id="linearGradient4894"
       xlink:href="#linearGradient4888"
       inkscape:collect="always" />
    <linearGradient
       gradientTransform="translate(-1.0193699,-0.40774795)"
       gradientUnits="userSpaceOnUse"
       y2="13.163922"
       x2="-14.111487"
       y1="23.304689"
       x1="-8.2567129"
       id="linearGradient4906"
       xlink:href="#linearGradient4888"
       inkscape:collect="always" />
    <clipPath
       id="clipPath5210"
       clipPathUnits="userSpaceOnUse">
      <path
         style="color:#000000;fill:#ff00ff;fill-opacity:1;fill-rule:nonzero;stroke:none;stroke-width:5;marker:none;visibility:visible;display:inline;overflow:visible;enable-background:accumulate"
         d="m -10.183594,74.130859 c -1.322339,0 -2.394531,1.072193 -2.394531,2.394532 0,1.322339 1.072192,2.394531 2.394531,2.394531 1.322339,0 2.394532,-1.072192 2.394532,-2.394531 0,-1.322339 -1.072193,-2.394532 -2.394532,-2.394532 z m 30.886719,6.5 c -0.604498,0 -1.095703,0.489253 -1.095703,1.09375 0,0.604498 0.491205,1.09375 1.095703,1.09375 0.604498,0 1.09375,-0.489252 1.09375,-1.09375 0,-0.604497 -0.489252,-1.09375 -1.09375,-1.09375 z m -26.474609,0.478516 c -1.246777,0 -2.257813,1.011036 -2.257813,2.257813 0,1.246776 1.011036,2.255859 2.257813,2.255859 1.246776,0 2.257812,-1.009083 2.257812,-2.255859 0,-1.246777 -1.011036,-2.257813 -2.257812,-2.257813 z m 22.916015,0.238281 c -0.736731,0 -1.333984,0.597253 -1.333984,1.333985 0,0.736731 0.597253,1.333984 1.333984,1.333984 0.736732,0 1.333985,-0.597253 1.333985,-1.333984 0,-0.736732 -0.597253,-1.333985 -1.333985,-1.333985 z m -4.34375,1.984375 c -0.736731,0 -1.333984,0.597253 -1.333984,1.333985 0,0.736731 0.597253,1.333984 1.333984,1.333984 0.736732,0 1.333985,-0.597253 1.333985,-1.333984 0,-0.736732 -0.597253,-1.333985 -1.333985,-1.333985 z m -6.052734,2.121094 c -0.963419,0 -1.746094,0.780722 -1.746094,1.744141 0,0.963418 0.782675,1.74414 1.746094,1.74414 0.963418,0 1.744141,-0.780722 1.744141,-1.74414 0,-0.963419 -0.780723,-1.744141 -1.744141,-1.744141 z m -6.5,0.410156 c -1.246777,0 -2.257813,1.011036 -2.257813,2.257813 0,1.246776 1.011036,2.257812 2.257813,2.257812 1.246777,0 2.257812,-1.011036 2.257812,-2.257812 0,-1.246777 -1.011035,-2.257813 -2.257812,-2.257813 z"
         id="path5212"
         inkscape:connector-curvature="0" />
    </clipPath>
    <linearGradient
       gradientTransform="translate(0,50)"
       gradientUnits="userSpaceOnUse"
       y2="70.557083"
       x2="-49.200706"
       y1="97.305344"
       x1="-26.779074"
       id="linearGradient5324"
       xlink:href="#linearGradient5318"
       inkscape:collect="always" />
    <clipPath
       id="clipPath5333"
       clipPathUnits="userSpaceOnUse">
      <path
         style="color:#000000;fill:#ff00ff;fill-opacity:1;fill-rule:nonzero;stroke:none;stroke-width:5;marker:none;visibility:visible;display:inline;overflow:visible;enable-background:accumulate"
         d="m -50.017578,118.13867 c -1.322339,0 -2.394531,1.07219 -2.394531,2.39453 0,1.32234 1.072192,2.39453 2.394531,2.39453 1.322339,0 2.394531,-1.07219 2.394531,-2.39453 0,-1.32234 -1.072192,-2.39453 -2.394531,-2.39453 z m 4.542969,8.125 c -1.440405,0 -2.609375,1.16702 -2.609375,2.60742 0,1.44041 1.16897,2.60743 2.609375,2.60743 1.440404,0 2.607421,-1.16702 2.607421,-2.60743 0,-1.4404 -1.167017,-2.60742 -2.607421,-2.60742 z m 7.214843,4.8086 c -1.263306,0 -2.287109,1.0238 -2.287109,2.28711 0,1.2633 1.023803,2.28906 2.287109,2.28906 1.263306,0 2.28711,-1.02576 2.28711,-2.28906 0,-1.26331 -1.023804,-2.28711 -2.28711,-2.28711 z m 6.894532,3.04687 c -1.115724,0 -2.021485,0.90381 -2.021485,2.01953 0,1.11573 0.905761,2.02149 2.021485,2.02149 1.115723,0 2.019531,-0.90576 2.019531,-2.02149 0,-1.11572 -0.903808,-2.01953 -2.019531,-2.01953 z m 6.925781,0.68359 c -1.115724,0 -2.019531,0.90577 -2.019531,2.02149 0,1.11572 0.903807,2.01953 2.019531,2.01953 1.115723,0 2.019531,-0.90381 2.019531,-2.01953 0,-1.11572 -0.903808,-2.02149 -2.019531,-2.02149 z m 6.242187,2.00977 c -0.974044,0 -1.763672,0.78963 -1.763672,1.76367 0,0.97405 0.789628,1.76367 1.763672,1.76367 0.974045,0 1.763672,-0.78962 1.763672,-1.76367 0,-0.97404 -0.789627,-1.76367 -1.763672,-1.76367 z m 4.533204,3.03516 c -0.903205,0 -1.636719,0.73351 -1.636719,1.63672 0,0.9032 0.733514,1.63476 1.636719,1.63476 0.903204,0 1.634765,-0.73156 1.634765,-1.63476 0,-0.90321 -0.731561,-1.63672 -1.634765,-1.63672 z"
         id="path5335"
         inkscape:connector-curvature="0" />
    </clipPath>
    <clipPath
       id="clipPath5487"
       clipPathUnits="userSpaceOnUse">
      <path
         style="color:#000000;fill:#ff00ff;fill-opacity:1;fill-rule:nonzero;stroke:none;stroke-width:5;marker:none;visibility:visible;display:inline;overflow:visible;enable-background:accumulate"
         d="m -90.226562,77.787109 c -1.322339,0 -2.392579,1.072193 -2.392579,2.394532 0,1.322339 1.07024,2.394531 2.392579,2.394531 1.322338,0 2.394531,-1.072192 2.394531,-2.394531 0,-1.322339 -1.072193,-2.394532 -2.394531,-2.394532 z m -0.08008,7.75 c -1.248547,0 -2.259765,1.011218 -2.259765,2.259766 0,1.248548 1.011218,2.261719 2.259765,2.261719 1.248548,0 2.261719,-1.013171 2.261719,-2.261719 0,-1.248548 -1.013171,-2.259766 -2.261719,-2.259766 z m 3.955079,7.427735 c -1.041933,0 -1.886719,0.844786 -1.886719,1.886718 0,1.041933 0.844786,1.886719 1.886719,1.886719 1.041932,0 1.886718,-0.844786 1.886718,-1.886719 0,-1.041932 -0.844786,-1.886718 -1.886718,-1.886718 z m 6.363281,4.001953 c -0.909699,0 -1.648438,0.736786 -1.648438,1.646484 0,0.909699 0.738739,1.648439 1.648438,1.648439 0.909698,0 1.646484,-0.73874 1.646484,-1.648439 0,-0.909698 -0.736786,-1.646484 -1.646484,-1.646484 z m 6.429687,1.710937 c -0.739683,0 -1.339844,0.600161 -1.339844,1.339846 0,0.73968 0.600161,1.33789 1.339844,1.33789 0.739684,0 1.339844,-0.59821 1.339844,-1.33789 0,-0.739685 -0.60016,-1.339846 -1.339844,-1.339846 z m 5.986328,2.179686 c -0.692457,0 -1.253906,0.56145 -1.253906,1.25391 0,0.69246 0.561449,1.2539 1.253906,1.2539 0.692457,0 1.253907,-0.56144 1.253907,-1.2539 0,-0.69246 -0.56145,-1.25391 -1.253907,-1.25391 z m 4.488282,5.08789 c -0.574391,0 -1.039063,0.46663 -1.039063,1.04102 0,0.57439 0.464672,1.03906 1.039063,1.03906 0.574391,0 1.041015,-0.46467 1.041015,-1.03906 0,-0.57439 -0.466624,-1.04102 -1.041015,-1.04102 z"
         id="path5489"
         inkscape:connector-curvature="0" />
    </clipPath>
    <filter
       height="1.1303784"
       y="-0.065189186"
       width="1.1608"
       x="-0.080400006"
       id="filter5535"
       inkscape:collect="always">
      <feGaussianBlur
         id="feGaussianBlur5537"
         stdDeviation="0.91792224"
         inkscape:collect="always" />
    </filter>
    <linearGradient
       inkscape:collect="always"
       xlink:href="#linearGradient4595"
       id="linearGradient4403"
       gradientUnits="userSpaceOnUse"
       gradientTransform="translate(-80,0)"
       x1="177.78296"
       y1="111.87411"
       x2="177.78296"
       y2="2.3937817" />
  </defs>
  <sodipodi:namedview
     id="base"
     pagecolor="#ffffff"
     bordercolor="#666666"
     borderopacity="1.0"
     inkscape:pageopacity="0.0"
     inkscape:pageshadow="2"
     inkscape:zoom="4.0745361"
     inkscape:cx="44.456273"
     inkscape:cy="35.801941"
     inkscape:document-units="px"
     inkscape:current-layer="layer1"
     showgrid="false"
     fit-margin-top="0"
     fit-margin-left="0"
     fit-margin-right="0"
     fit-margin-bottom="0"
     inkscape:window-width="1920"
     inkscape:window-height="1029"
     inkscape:window-x="0"
     inkscape:window-y="24"
     inkscape:window-maximized="1"
     showborder="true"
     showguides="false"
     inkscape:guide-bbox="true"
     inkscape:showpageshadow="false"
     inkscape:snap-global="true"
     inkscape:snap-bbox="true"
     inkscape:bbox-paths="true"
     inkscape:bbox-nodes="true"
     inkscape:snap-bbox-edge-midpoints="true"
     inkscape:snap-bbox-midpoints="true"
     inkscape:object-paths="true"
     inkscape:snap-intersection-paths="true"
     inkscape:object-nodes="true"
     inkscape:snap-smooth-nodes="true"
     inkscape:snap-midpoints="true"
     inkscape:snap-object-midpoints="true"
     inkscape:snap-center="true">
    <inkscape:grid
       type="xygrid"
       id="grid821" />
    <sodipodi:guide
       orientation="1,0"
       position="16,48"
       id="guide823" />
    <sodipodi:guide
       orientation="1,0"
       position="80,40"
       id="guide827" />
    <sodipodi:guide
       orientation="0,1"
       position="64,16"
       id="guide829" />
  </sodipodi:namedview>
  <metadata
     id="metadata6522">
    <rdf:RDF>
      <cc:Work
         rdf:about="">
        <dc:format>image/svg+xml</dc:format>
        <dc:type
           rdf:resource="http://purl.org/dc/dcmitype/StillImage" />
        <dc:title></dc:title>
      </cc:Work>
    </rdf:RDF>
  </metadata>
  <g
     inkscape:label="BACKGROUND"
     inkscape:groupmode="layer"
     id="layer1"
     transform="translate(268,-635.29076)"
     style="display:inline">
    <path
       style="fill:url(#linearGradient908);fill-opacity:1;stroke:none;display:inline;filter:url(#filter1121)"
       d="m -268,700.15563 0,-33.72973 c 0,-27.24324 3.88785,-31.13513 31.10302,-31.13513 l 33.79408,0 c 27.21507,0 31.1029,3.89189 31.1029,31.13513 l 0,33.72973 c 0,27.24325 -3.88783,31.13514 -31.1029,31.13514 l -33.79408,0 C -264.11215,731.29077 -268,727.39888 -268,700.15563 Z"
       id="path6455"
       inkscape:connector-curvature="0"
       sodipodi:nodetypes="sssssssss" />
    <g
       inkscape:label="Logo"
       id="layer2-4"
       transform="matrix(0.65921639,0,0,0.65921639,-285.17077,646.98506)">
      <path
         style="font-style:normal;font-variant:normal;font-weight:normal;font-stretch:normal;text-indent:0;text-align:start;text-decoration:none;line-height:normal;letter-spacing:normal;word-spacing:normal;text-transform:none;direction:ltr;block-progression:tb;writing-mode:lr-tb;text-anchor:start;baseline-shift:baseline;color:#000000;color-interpolation:sRGB;color-interpolation-filters:linearRGB;fill:url(#linearGradient4403);fill-opacity:1;stroke:none;stroke-width:6.06781054;marker:none;visibility:visible;display:inline;overflow:visible;enable-background:accumulate;clip-rule:nonzero;color-rendering:auto;image-rendering:auto;shape-rendering:auto;text-rendering:auto;font-family:sans-serif;-inkscape-font-specification:sans-serif"
         d="m 144.16602,0.71484375 -0.082,0.009766 C 124.47315,0.62670457 77.566329,5.6465838 52.412109,51.40625 c -5.634232,2.301038 -9.689453,7.679423 -9.689453,14.109375 0,0.744447 0.169938,1.414661 0.273438,2.117187 -1.542835,2.235236 -8.654821,13.531536 -3.615235,27.511719 1.63498,4.535585 5.363033,7.667559 9.791016,9.421879 4.427983,1.75431 9.638639,2.31325 15.105469,2.01562 5.087139,-0.27696 7.466013,1.36697 8.9375,2.96289 1.471487,1.59592 1.80664,3.05469 1.80664,3.05469 l 2.457032,10.38672 3.375,-10.125 c 0.506658,-1.51998 0.63387,-3.20365 0.318359,-5.73047 -0.09743,-0.78031 -0.400357,-1.66813 -0.638672,-2.52734 3.756387,0.42183 7.188308,0.61794 9.744141,1.0957 1.278075,0.23891 3.606927,1.2614 5.414062,2.25 1.807135,0.9886 3.142578,1.88281 3.142578,1.88281 l 7.150396,4.78516 -2.56641,-8.21094 c -1.90763,-6.10443 -6.284455,-9.847229 -10.089845,-11.96875 -0.262926,-0.146582 -0.441607,-0.169951 -0.699219,-0.302734 3.080219,-2.227846 5.603602,-4.947983 8.033204,-7.207032 0.93862,-0.872731 3.82227,-1.564453 3.82227,-1.564453 l 4.58203,-0.621093 -2.39453,-3.957032 c -3.06052,-5.053898 -9.75963,-5.669659 -13.998052,-2.416015 -2.738247,2.102028 -4.835056,3.856047 -6.785156,4.003906 -4.847276,0.367525 -9.973684,-3.660787 -9.699219,-9.554688 0.08948,-1.921461 1.237174,-4.051685 2.357422,-5.078125 0.210945,0.04827 0.344535,0.07628 0.599609,0.134766 1.186656,0.272104 2.805107,0.633606 4.660157,0.916016 3.710099,0.564818 8.402471,0.885427 12.902343,-0.658204 10.777676,-3.697158 23.753576,-8.988346 32.507816,-17.986328 3.65797,-3.759825 5.48801,-8.201166 6.92382,-11.49414 0.71791,-1.646487 1.35371,-3.014466 1.87305,-3.796875 0.19042,-0.286876 0.15457,-0.176324 0.26367,-0.294922 0.002,0.0024 0.002,0.0015 0.004,0.0039 0.4262,0.430509 1.01226,1.038229 1.98828,1.537109 0.97602,0.498881 2.44322,0.73998 3.75,0.382813 2.71662,-0.7425 4.48419,-2.807757 5.57813,-4.923828 1.09393,-2.116071 1.62454,-4.422196 1.61328,-6.628906 -0.007,-1.402807 -0.32454,-2.335518 -0.45313,-2.876953 0.2441,-0.185975 0.77541,-0.384506 2.38477,-0.5 0.89766,-0.06442 1.92502,-0.08441 3.16601,-0.486329 1.241,-0.401916 2.8783,-1.633112 3.38868,-3.34375 0.54076,-1.81248 0.48278,-3.670806 -0.10352,-5.169921 -0.5863,-1.499116 -1.55309,-2.546265 -2.41016,-3.3437505 -1.44976,-1.3489889 -2.1819,-2.0078233 -2.56836,-2.4980469 0.0233,-0.02067 0.10157,-0.1035156 0.10157,-0.1035156 l 5.86132,-4.4804688 -7.3164,-0.9394531 c 0,0 -3.41499,-0.43275576 -8.88477,-0.47265622 l -0.21093,-0.001953 z m 0.16796,6.06835935 c 2.45329,0.017896 2.48219,0.1047834 3.86524,0.2011719 0.0219,0.453197 0.0822,0.922243 0.27148,1.421875 1.14177,3.013503 3.48917,4.232835 4.57813,5.246094 0.54448,0.506629 0.80126,0.874803 0.89453,1.113281 0.0451,0.115236 -0.034,0.423707 -0.0293,0.591797 -0.30654,0.04795 -0.57497,0.09917 -1.20703,0.144531 -1.8123,0.130059 -5.04605,0.202992 -7.11523,3.021485 -1.12027,1.525941 -1.02691,3.464875 -0.82032,4.490234 0.2066,1.025359 0.37113,1.589026 0.37305,1.949219 0.006,1.105581 -0.3465,2.667349 -0.9375,3.810547 -0.48083,0.930102 -1.01878,1.407488 -1.4707,1.654296 -0.0724,-0.06359 -0.0393,-0.0285 -0.14258,-0.132812 -0.31573,-0.318918 -0.72416,-0.811142 -1.47852,-1.353516 -0.75435,-0.542373 -2.17232,-1.125028 -3.59375,-0.835937 -2.12365,0.431911 -3.5949,1.933877 -4.56445,3.394531 -0.96954,1.460654 -1.65089,3.056888 -2.37891,4.726562 -1.45603,3.339349 -3.03433,6.940329 -5.70898,9.689454 -7.45417,7.661718 -19.65382,12.885156 -30.128906,16.478515 -2.950677,1.012197 -6.79113,0.889923 -10.019531,0.398438 -1.6142,-0.245743 -3.066757,-0.568324 -4.216797,-0.832031 -0.57502,-0.131854 -1.070712,-0.248912 -1.517578,-0.341797 -0.446866,-0.09289 -0.540916,-0.272276 -1.701172,-0.15625 l -0.603515,0.06055 -0.535157,0.289062 c -4.088046,2.207542 -5.830275,6.660659 -6.019531,10.724609 -0.442975,9.512512 7.742806,16.529374 16.21875,15.886719 2.886564,-0.218863 5.01154,-1.474359 6.873047,-2.839844 -2.887511,2.761789 -5.614655,5.209809 -8.855469,6.035157 l 0.201172,5.923828 c 0.127549,0.02341 2.686456,0.578191 5.460938,2.044922 C 85.465946,98.927736 80.917236,99.04558 76.041016,97.8125 l -8.554688,-2.162109 0.462891,-1.253907 C 67.517878,94.133765 67.143617,93.908647 66.800781,93.679688 60.464652,89.448077 58.641838,84.117874 58.042969,80.761719 l -5.933594,-0.1875 c -0.743318,3.039843 -1.297857,6.194123 -0.546875,9.253906 0.938666,3.824511 3.486628,6.469289 6.232422,7.882813 2.745794,1.413523 5.641439,1.878253 8.09375,2.273437 l 1.457031,-3.953125 4.833985,5.73242 c -2.254895,-0.88999 -4.984225,-1.41697 -8.230469,-1.24023 -4.824711,0.26267 -9.253737,-0.2945 -12.542969,-1.597659 -3.289232,-1.303154 -5.355939,-3.170001 -6.318359,-5.839843 -3.501947,-9.714657 0.40912,-17.924216 2.320312,-21.121094 L 50.3125,72.578125 49.097656,67.84375 c -0.198444,-0.773142 -0.308594,-1.544271 -0.308594,-2.328125 0,-4.31675 2.896092,-7.894786 6.826172,-8.996094 l 2.716797,-0.761719 -0.36914,-1.816406 C 81.834285,10.990201 125.98495,6.6493519 144.33398,6.7832031 Z"
         id="path4055-4"
         inkscape:connector-curvature="0" />
      <path
         style="color:#000000;fill:url(#linearGradient4627);fill-opacity:1;stroke:none;stroke-width:1;marker:none;visibility:visible;display:inline;overflow:visible;enable-background:accumulate"
         d="m 45.99142,68.562948 c 0,0 -8.79736,11.572938 -3.7578,25.553075 2.59741,7.205427 11.58723,9.996567 21.87877,9.436267 11.73633,-0.63896 13.86213,8.35067 13.86213,8.35067 0,0 1.4903,-10.21824 -5.92898,-13.611599 -4.5917,-2.100104 -15.38867,-0.434916 -17.53643,-9.185745 -1.45661,-5.934837 4.09184,-17.870451 4.09184,-17.870451 z"
         id="path4446"
         inkscape:connector-curvature="0"
         sodipodi:nodetypes="csscsscc" />
      <g
         transform="translate(110,0)"
         id="g5539">
        <path
           style="opacity:0.85;color:#000000;fill:#ffffff;fill-opacity:1;fill-rule:nonzero;stroke:#00f1ff;stroke-width:1;stroke-miterlimit:4;stroke-opacity:1;stroke-dasharray:none;marker:none;visibility:visible;display:inline;overflow:visible;filter:url(#filter5418);enable-background:accumulate"
           d="m -59.388305,73.158428 c -10.438347,24.530116 9.133554,23.81248 9.133554,23.81248 0,0 -13.987385,-0.358818 -4.175338,-22.279347 z"
           id="path5365"
           inkscape:connector-curvature="0"
           sodipodi:nodetypes="cccc" />
        <path
           style="opacity:0.85;color:#000000;fill:#ffffff;fill-opacity:1;fill-rule:nonzero;stroke:none;stroke-width:1;marker:none;visibility:visible;display:inline;overflow:visible;filter:url(#filter5476);enable-background:accumulate"
           d="m -39.35257,99.397824 c 5.010407,4.175336 7.306843,11.795336 7.306843,11.795336 l 0.104384,-5.11479 -2.296437,-5.42794 c 0,0 -3.653421,-0.62631 -5.11479,-1.252606 z"
           id="path5422"
           inkscape:connector-curvature="0"
           sodipodi:nodetypes="ccccc" />
        <path
           style="color:#000000;fill:#0070ba;fill-opacity:1;fill-rule:nonzero;stroke:none;stroke-width:5;marker:none;visibility:visible;display:inline;overflow:visible;enable-background:accumulate"
           d="m -60.226562,77.787109 c -1.322339,0 -2.392579,1.072193 -2.392579,2.394532 0,1.322339 1.07024,2.394531 2.392579,2.394531 1.322338,0 2.394531,-1.072192 2.394531,-2.394531 0,-1.322339 -1.072193,-2.394532 -2.394531,-2.394532 z m -0.08008,7.75 c -1.248547,0 -2.259765,1.011218 -2.259765,2.259766 0,1.248548 1.011218,2.261719 2.259765,2.261719 1.248548,0 2.261719,-1.013171 2.261719,-2.261719 0,-1.248548 -1.013171,-2.259766 -2.261719,-2.259766 z m 3.955079,7.427735 c -1.041933,0 -1.886719,0.844786 -1.886719,1.886718 0,1.041933 0.844786,1.886719 1.886719,1.886719 1.041932,0 1.886718,-0.844786 1.886718,-1.886719 0,-1.041932 -0.844786,-1.886718 -1.886718,-1.886718 z m 6.363281,4.001953 c -0.909699,0 -1.648438,0.736786 -1.648438,1.646484 0,0.909699 0.738739,1.648439 1.648438,1.648439 0.909698,0 1.646484,-0.73874 1.646484,-1.648439 0,-0.909698 -0.736786,-1.646484 -1.646484,-1.646484 z m 6.429687,1.710937 c -0.739683,0 -1.339844,0.600161 -1.339844,1.339846 0,0.73968 0.600161,1.33789 1.339844,1.33789 0.739684,0 1.339844,-0.59821 1.339844,-1.33789 0,-0.739685 -0.60016,-1.339846 -1.339844,-1.339846 z m 5.986328,2.179686 c -0.692457,0 -1.253906,0.56145 -1.253906,1.25391 0,0.69246 0.561449,1.2539 1.253906,1.2539 0.692457,0 1.253907,-0.56144 1.253907,-1.2539 0,-0.69246 -0.56145,-1.25391 -1.253907,-1.25391 z m 4.488282,5.08789 c -0.574391,0 -1.039063,0.46663 -1.039063,1.04102 0,0.57439 0.464672,1.03906 1.039063,1.03906 0.574391,0 1.041015,-0.46467 1.041015,-1.03906 0,-0.57439 -0.466624,-1.04102 -1.041015,-1.04102 z"
           id="path4685"
           inkscape:connector-curvature="0" />
        <g
           inkscape:groupmode="maskhelper"
           id="g5484"
           clip-path="url(#clipPath5487)"
           transform="translate(30,0)"
           style="stroke-width:2;stroke-miterlimit:4;stroke-dasharray:none;filter:url(#filter5535)">
          <path
             inkscape:connector-curvature="0"
             id="path5480"
             d="m -87.54139,73.615106 -1.95719,14.744166 10.046909,9.655471 6.393488,-1.370032 6.393488,4.371059 4.566777,6.39349"
             style="color:#000000;fill:none;stroke:#ffa4d9;stroke-width:2;stroke-miterlimit:4;stroke-opacity:1;stroke-dasharray:none;marker:none;visibility:visible;display:inline;overflow:visible;enable-background:accumulate"
             sodipodi:nodetypes="cccccc" />
        </g>
      </g>
      <path
         style="font-style:normal;font-variant:normal;font-weight:normal;font-stretch:normal;text-indent:0;text-align:start;text-decoration:none;line-height:normal;letter-spacing:normal;word-spacing:normal;text-transform:none;direction:ltr;block-progression:tb;writing-mode:lr-tb;text-anchor:start;baseline-shift:baseline;color:#000000;color-interpolation:sRGB;color-interpolation-filters:linearRGB;fill:#000000;fill-opacity:1;stroke:none;stroke-width:2;marker:none;visibility:visible;display:inline;overflow:visible;enable-background:accumulate;clip-rule:nonzero;color-rendering:auto;image-rendering:auto;shape-rendering:auto;text-rendering:auto;font-family:sans-serif;-inkscape-font-specification:sans-serif"
         d="m 45.578125,67.453125 -0.382813,0.503906 c 0,0 -9.127517,12.00301 -3.902343,26.498047 1.409552,3.910206 4.580702,6.617932 8.626953,8.220702 4.046251,1.60277 8.994538,2.16091 14.246094,1.875 5.610702,-0.30546 8.718098,1.636 10.542968,3.61524 1.824871,1.97923 2.292969,3.96679 2.292969,3.96679 l 0.857422,3.63086 1.072266,-3.57422 c 0.144913,-0.48304 0.253693,-1.2227 0.294921,-2.34961 0.04123,-1.1269 -0.01765,-2.55398 -0.335937,-4.07617 -0.636583,-3.04437 -2.392824,-6.534516 -6.429687,-8.380858 -2.65637,-1.214944 -6.457153,-1.257342 -9.84375,-2.15625 -3.386598,-0.898907 -6.158801,-2.374947 -7.136719,-6.359374 -0.621258,-2.531253 0.296471,-6.954521 1.480469,-10.615235 1.183997,-3.660713 2.546875,-6.595703 2.546874,-6.595703 l 0.529297,-1.138672 -14.458984,-3.064453 z m 0.878906,2.230469 10.789063,2.287109 c -0.359113,0.799547 -1.171201,2.517758 -2.189453,5.666016 -1.226073,3.790803 -2.35489,8.303447 -1.519532,11.707031 1.169843,4.766401 4.869656,6.833221 8.566407,7.814453 3.696751,0.981232 7.590066,1.157809 9.52539,2.042969 3.382416,1.547018 4.751434,4.326798 5.304688,6.972658 0.155682,0.74453 0.125974,1.34888 0.164062,2.02148 -0.325053,-0.48095 -0.464348,-0.89277 -0.917968,-1.38476 -2.172109,-2.35585 -5.995465,-4.58936 -12.121094,-4.25586 -5.039988,0.27439 -9.731446,-0.2842 -13.402344,-1.73828 -3.670898,-1.454089 -6.29456,-3.743846 -7.482422,-7.039066 -4.533049,-12.575031 2.326607,-22.753738 3.283203,-24.09375 z"
         id="path4440"
         inkscape:connector-curvature="0" />
      <g
         transform="translate(110,-50)"
         id="g5367">
        <path
           sodipodi:nodetypes="ccccssc"
           inkscape:connector-curvature="0"
           id="path4444"
           d="m -9.47865,157.31009 c -3.34027,-10.68887 -15.53226,-12.77653 -15.53226,-12.77653 l -24.88502,-25.38606 -5.34444,8.43418 c 0,0 -0.80955,11.16583 10.35484,18.62201 10.18833,6.80431 18.86212,5.23159 25.72009,6.51353 3.91995,0.73275 9.68679,4.59287 9.68679,4.59287 z"
           style="color:#000000;fill:url(#linearGradient4619);fill-opacity:1;stroke:none;stroke-width:1;marker:none;visibility:visible;display:inline;overflow:visible;enable-background:accumulate" />
        <path
           style="color:#000000;fill:url(#linearGradient5324);fill-opacity:1;stroke:#00ffff;stroke-width:1;marker:none;visibility:visible;display:inline;overflow:visible;filter:url(#filter5314);enable-background:accumulate"
           d="m -50.835384,127.79045 c 0,0 0.02797,10.578 9.890335,16.36211 9.630227,5.64796 21.946625,2.21815 31.654288,13.49156 -3.653422,-9.70766 -15.761904,-13.46547 -15.761904,-13.46547 l -21.398613,-17.74519 z"
           id="path5272"
           inkscape:connector-curvature="0"
           sodipodi:nodetypes="cscccc" />
        <path
           style="color:#000000;fill:#0070ba;fill-opacity:1;fill-rule:nonzero;stroke:none;stroke-width:5;marker:none;visibility:visible;display:inline;overflow:visible;enable-background:accumulate"
           d="m -50.017578,128.13867 c -1.322339,0 -2.394531,1.07219 -2.394531,2.39453 0,1.32234 1.072192,2.39453 2.394531,2.39453 1.322339,0 2.394531,-1.07219 2.394531,-2.39453 0,-1.32234 -1.072192,-2.39453 -2.394531,-2.39453 z m 4.542969,8.125 c -1.440405,0 -2.609375,1.16702 -2.609375,2.60742 0,1.44041 1.16897,2.60743 2.609375,2.60743 1.440404,0 2.607421,-1.16702 2.607421,-2.60743 0,-1.4404 -1.167017,-2.60742 -2.607421,-2.60742 z m 7.214843,4.8086 c -1.263306,0 -2.287109,1.0238 -2.287109,2.28711 0,1.2633 1.023803,2.28906 2.287109,2.28906 1.263306,0 2.28711,-1.02576 2.28711,-2.28906 0,-1.26331 -1.023804,-2.28711 -2.28711,-2.28711 z m 6.894532,3.04687 c -1.115724,0 -2.021485,0.90381 -2.021485,2.01953 0,1.11573 0.905761,2.02149 2.021485,2.02149 1.115723,0 2.019531,-0.90576 2.019531,-2.02149 0,-1.11572 -0.903808,-2.01953 -2.019531,-2.01953 z m 6.925781,0.68359 c -1.115724,0 -2.019531,0.90577 -2.019531,2.02149 0,1.11572 0.903807,2.01953 2.019531,2.01953 1.115723,0 2.019531,-0.90381 2.019531,-2.01953 0,-1.11572 -0.903808,-2.02149 -2.019531,-2.02149 z m 6.242187,2.00977 c -0.974044,0 -1.763672,0.78963 -1.763672,1.76367 0,0.97405 0.789628,1.76367 1.763672,1.76367 0.974045,0 1.763672,-0.78962 1.763672,-1.76367 0,-0.97404 -0.789627,-1.76367 -1.763672,-1.76367 z m 4.533204,3.03516 c -0.903205,0 -1.636719,0.73351 -1.636719,1.63672 0,0.9032 0.733514,1.63476 1.636719,1.63476 0.903204,0 1.634765,-0.73156 1.634765,-1.63476 0,-0.90321 -0.731561,-1.63672 -1.634765,-1.63672 z"
           id="path4699"
           inkscape:connector-curvature="0" />
        <g
           inkscape:groupmode="maskhelper"
           id="g5330"
           clip-path="url(#clipPath5333)"
           style="filter:url(#filter5361)"
           transform="translate(0,10)">
          <path
             inkscape:connector-curvature="0"
             id="path5326"
             d="m -53.431291,114.03917 7.95924,11.64528 18.071389,9.32927 15.657521,7.82876"
             style="color:#000000;fill:none;stroke:#f686c0;stroke-width:2;stroke-linecap:round;stroke-linejoin:miter;stroke-miterlimit:4;stroke-opacity:1;stroke-dasharray:none;stroke-dashoffset:0;marker:none;visibility:visible;display:inline;overflow:visible;enable-background:accumulate"
             sodipodi:nodetypes="cccc" />
        </g>
      </g>
      <path
         style="font-style:normal;font-variant:normal;font-weight:normal;font-stretch:normal;text-indent:0;text-align:start;text-decoration:none;line-height:normal;letter-spacing:normal;word-spacing:normal;text-transform:none;direction:ltr;block-progression:tb;writing-mode:lr-tb;text-anchor:start;baseline-shift:baseline;color:#000000;color-interpolation:sRGB;color-interpolation-filters:linearRGB;fill:#000000;fill-opacity:1;stroke:none;stroke-width:2;marker:none;visibility:visible;display:inline;overflow:visible;enable-background:accumulate;clip-rule:nonzero;color-rendering:auto;image-rendering:auto;shape-rendering:auto;text-rendering:auto;font-family:sans-serif;-inkscape-font-specification:sans-serif"
         d="m 53.761719,77.509766 c 0,0 -0.769526,11.800727 10.796875,19.52539 10.465494,6.989414 19.528728,5.437244 26.091797,6.664064 1.735275,0.32437 4.126992,1.43266 6.017578,2.4668 1.890586,1.03413 3.296875,1.9746 3.296875,1.9746 l 2.357426,1.57813 -0.84571,-2.70703 C 97.940712,95.697012 85.158203,93.548828 85.158203,93.548828 l -0.337891,1.970703 c 0,0 9.302866,1.685281 13.490235,9.300779 -0.344321,-0.19973 -0.292709,-0.19634 -0.683594,-0.41015 -1.97282,-1.07912 -4.4247,-2.26741 -6.609375,-2.67578 -7.152883,-1.33707 -15.436501,0.25787 -25.347656,-6.361333 -10.762384,-7.187697 -9.91211,-17.71875 -9.91211,-17.71875 l -1.996093,-0.144531 z"
         id="path4438"
         inkscape:connector-curvature="0" />
      <path
         sodipodi:nodetypes="csssssssscssscssscc"
         inkscape:connector-curvature="0"
         id="path4053"
         d="m 152.87488,4.2000979 c 0,0 -2.13429,1.630933 -1.56575,3.1315042 1.29782,3.4253679 7.02934,4.3325019 5.48013,9.5249919 -0.85439,2.863655 -6.53246,0.439774 -8.75151,3.462399 -0.95373,1.299096 0.13029,2.748166 0.13987,4.62732 0.0169,3.312292 -1.76307,7.738348 -4.95821,8.611637 -2.43745,0.666199 -3.28108,-2.847381 -5.09183,-2.479108 -4.2679,0.868011 -4.75185,10.44397 -11.08448,16.95292 -8.1042,8.32985 -20.69179,13.587409 -31.31817,17.232668 -7.45055,2.555827 -17.06774,-0.889765 -18.13663,-0.782876 -2.67222,1.442997 -4.28398,5.060216 -4.43004,8.196608 -0.35872,7.703206 6.29677,13.226095 12.95838,12.721005 3.29716,-0.249995 5.84482,-2.658318 8.4046,-4.623345 2.81552,-2.161347 7.50879,-1.796509 9.55437,1.581402 0,0 -3.46053,0.470799 -5.48014,2.348628 C 91.95765,90.877707 86.66529,98.612984 72.76056,93.187009 62.91599,89.345408 60.94115,77.8611 60.94115,77.8611 57.60632,67.538505 54.75441,53.39081 54.75441,53.39081 86.06946,-4.4115389 152.87488,4.2000979 152.87488,4.2000979 Z"
         style="color:#000000;fill:url(#linearGradient4611);fill-opacity:1;stroke:none;stroke-width:1;marker:none;visibility:visible;display:inline;overflow:visible;enable-background:accumulate" />
      <g
         transform="translate(110,0)"
         id="g5070">
        <path
           style="color:#000000;fill:url(#linearGradient4894);fill-opacity:1;fill-rule:nonzero;stroke:none;stroke-width:1;marker:none;visibility:visible;display:inline;overflow:visible;filter:url(#filter4727);enable-background:accumulate"
           d="m -43.404585,56.033015 c 0,0 14.064566,-13.998006 29.969474,-23.608606 C 2.4698001,22.813808 41.40699,11.18074 41.40699,11.18074 c 0,0 -27.109157,21.273679 -43.2212844,30.059179 -16.1121306,8.7855 -41.5902906,14.793096 -41.5902906,14.793096 z"
           id="path4717"
           inkscape:connector-curvature="0"
           sodipodi:nodetypes="czczc" />
        <path
           style="color:#000000;fill:#ffffff;fill-opacity:1;fill-rule:nonzero;stroke:none;stroke-width:1;marker:none;visibility:visible;display:inline;overflow:visible;filter:url(#filter4962);enable-background:accumulate"
           d="M -34.352581,36.950411 C -13.149688,23.290855 16.20816,12.485534 16.20816,12.485534 c 0,0 -14.66692,0.939698 -25.688116,7.339463 -11.021201,6.399765 -24.872625,17.125414 -24.872625,17.125414 z"
           id="path4932"
           inkscape:connector-curvature="0"
           sodipodi:nodetypes="cczc" />
        <path
           style="opacity:0.7;color:#000000;fill:#029dff;fill-opacity:1;stroke:none;stroke-width:0.5;marker:none;visibility:visible;display:inline;overflow:visible;filter:url(#filter5014);enable-background:accumulate"
           d="m -47.502636,51.425463 c 0,0 3.033516,-4.331961 22.833885,-18.144784 C -4.8683818,19.467856 37.716685,8.0003065 37.716685,8.0003065 c 0,0 -44.7698895,18.9515775 -58.919578,27.9307345 -14.149688,8.979158 -26.299743,15.494422 -26.299743,15.494422 z"
           id="path4984"
           inkscape:connector-curvature="0"
           sodipodi:nodetypes="czczc" />
        <path
           style="color:#000000;fill:#e4ffff;fill-opacity:1;fill-rule:nonzero;stroke:none;stroke-width:1;marker:none;visibility:visible;display:inline;overflow:visible;filter:url(#filter4762);enable-background:accumulate"
           d="m -42.589089,62.067684 c 0,0 16.602204,-2.855673 43.058179,-17.288513 C 14.1162,37.3341 33.57822,18.520204 38.145,16.889212 c 0,0 -6.96879,5.873304 -9.94905,9.296653 -7.81416,8.975931 -3.019552,13.047524 -22.1814818,28.175383 -11.299691,8.920819 -48.6035572,7.706436 -48.6035572,7.706436 z"
           id="path4760"
           inkscape:connector-curvature="0"
           sodipodi:nodetypes="cscssc" />
        <path
           style="color:#000000;fill:url(#linearGradient4906);fill-opacity:1;fill-rule:nonzero;stroke:none;stroke-width:1;marker:none;visibility:visible;display:inline;overflow:visible;filter:url(#filter4928);enable-background:accumulate"
           d="M -46.788893,48.163479 C -24.566629,29.203199 10.09194,13.912652 32.92583,6.7770627 c 0,0 -24.6953999,-5.3921657 -50.152997,8.9704543 -25.457601,14.36262 -29.561726,32.415962 -29.561726,32.415962 z"
           id="path4898"
           inkscape:connector-curvature="0"
           sodipodi:nodetypes="cczc" />
        <path
           style="color:#000000;fill:#0070ba;fill-opacity:1;fill-rule:nonzero;stroke:none;stroke-width:5;marker:none;visibility:visible;display:inline;overflow:visible;enable-background:accumulate"
           d="m 18.63672,5.5722656 c -1.39719,0 -2.5293,1.1321042 -2.5293,2.5292969 0,1.3971927 1.13211,2.5312495 2.5293,2.5312495 1.39719,0 2.5293,-1.1340568 2.5293,-2.5312495 0,-1.3971927 -1.13211,-2.5292969 -2.5293,-2.5292969 z M 9.1875,7.625 c -1.65694,0 -3,1.3430621 -3,3 0,1.656938 1.34306,3 3,3 1.65694,0 3,-1.343062 3,-3 0,-1.6569379 -1.34306,-3 -3,-3 z M -1.117188,9.9335938 c -1.916683,0 -3.470703,1.5540202 -3.470703,3.4707032 0,1.916683 1.55402,3.470703 3.470703,3.470703 1.916688,0 3.470708,-1.55402 3.470708,-3.470703 0,-1.916683 -1.55402,-3.4707032 -3.470708,-3.4707032 z m -11.902343,4.8261722 c -2.325487,0 -4.208985,1.885451 -4.208985,4.210937 0,2.325487 1.883498,4.210938 4.208985,4.210938 2.325486,0 4.210937,-1.885451 4.210937,-4.210938 0,-2.325486 -1.885451,-4.210937 -4.210937,-4.210937 z m 42.087891,0.77539 c -1.09022,0 -1.97266,0.882435 -1.97266,1.972656 0,1.090222 0.88244,1.97461 1.97266,1.97461 1.09022,0 1.97461,-0.884388 1.97461,-1.97461 0,-1.090221 -0.88439,-1.972656 -1.97461,-1.972656 z m -7.35352,3.078125 c -1.65693,0 -3,1.343062 -3,3 0,1.656938 1.34307,3 3,3 1.65694,0 3,-1.343062 3,-3 0,-1.656938 -1.34306,-3 -3,-3 z m -45.499996,2.435547 c -2.304648,0 -4.171875,1.867227 -4.171875,4.171875 0,2.304648 1.867227,4.173828 4.171875,4.173828 2.304648,0 4.173828,-1.86918 4.173828,-4.173828 0,-2.304648 -1.86918,-4.171875 -4.173828,-4.171875 z m 35.025386,2.181641 c -2.24726,0 -4.07031,1.821091 -4.07031,4.068359 0,2.247268 1.82305,4.070313 4.07031,4.070313 2.24727,0 4.06836,-1.823045 4.06836,-4.070313 0,-2.247268 -1.82109,-4.068359 -4.06836,-4.068359 z m 14.72852,5.503906 c -0.97216,0 -1.75977,0.789563 -1.75977,1.761719 0,0.972155 0.78761,1.759765 1.75977,1.759765 0.97216,0 1.75977,-0.78761 1.75977,-1.759765 0,-0.972156 -0.78761,-1.761719 -1.75977,-1.761719 z m -27.681641,0.07227 c -2.758021,0 -4.99414,2.236119 -4.99414,4.99414 0,2.758021 2.236119,4.994141 4.99414,4.994141 2.758021,0 4.994141,-2.23612 4.994141,-4.994141 0,-2.758021 -2.23612,-4.99414 -4.994141,-4.99414 z m -32.175781,0.01367 c -1.907946,0 -3.455078,1.545179 -3.455078,3.453126 0,1.907946 1.547132,3.455078 3.455078,3.455078 1.907946,0 3.453125,-1.547132 3.453125,-3.455078 0,-1.907947 -1.545179,-3.453126 -3.453125,-3.453126 z m 53.626952,5.238282 c -1.92259,0 -3.48242,1.557882 -3.48242,3.480468 0,1.922587 1.55983,3.482422 3.48242,3.482422 1.92259,0 3.48047,-1.559835 3.48047,-3.482422 0,-1.922586 -1.55788,-3.480468 -3.48047,-3.480468 z m -61.214842,2.214844 c -1.303449,0 -2.359376,1.055926 -2.359376,2.359374 0,1.303449 1.055927,2.359376 2.359376,2.359376 1.303448,0 2.361328,-1.055927 2.361328,-2.359376 0,-1.303448 -1.05788,-2.359374 -2.361328,-2.359374 z m 26.376953,0.652343 c -2.436882,0 -4.41211,1.975228 -4.41211,4.41211 0,2.436881 1.975228,4.412109 4.41211,4.412109 2.436881,0 4.412109,-1.975228 4.412109,-4.412109 0,-2.436882 -1.975228,-4.41211 -4.412109,-4.41211 z M 12.0957,41.273441 c -2.3063,0 -4.17773,1.86948 -4.17773,4.175781 0,2.3063 1.87143,4.175781 4.17773,4.175781 2.3063,0 4.17578,-1.869481 4.17578,-4.175781 0,-2.306301 -1.86948,-4.175781 -4.17578,-4.175781 z m -38.552731,3.158203 c -1.771934,0 -3.208985,1.435097 -3.208985,3.207031 0,1.771934 1.437051,3.208984 3.208985,3.208984 1.771934,0 3.208984,-1.43705 3.208984,-3.208984 0,-1.771934 -1.43705,-3.207031 -3.208984,-3.207031 z M 1.46094,48.599612 c -2.342431,0 -4.24219,1.897806 -4.24219,4.240235 0,2.342429 1.899759,4.242187 4.24219,4.242187 2.34243,0 4.24023,-1.899758 4.24023,-4.242187 0,-2.342429 -1.8978,-4.240235 -4.24023,-4.240235 z m -36.404299,2.140625 c -1.076762,0 -1.949219,0.874411 -1.949219,1.951172 0,1.076762 0.872457,1.949219 1.949219,1.949219 1.076761,0 1.949218,-0.872457 1.949218,-1.949219 0,-1.076761 -0.872457,-1.951172 -1.949218,-1.951172 z m 25.388671,3.638672 c -2.040179,0 -3.693359,1.655133 -3.693359,3.695313 0,2.04018 1.65318,3.693359 3.693359,3.693359 2.04018,0 3.695313,-1.653179 3.695313,-3.693359 0,-2.04018 -1.655133,-3.695313 -3.695313,-3.695313 z M -20.542969,58.5293 c -1.620809,0 -2.933593,1.314737 -2.933593,2.935547 0,1.620809 1.312784,2.935547 2.933593,2.935547 1.62081,0 2.935547,-1.314738 2.935547,-2.935547 0,-1.62081 -1.314737,-2.935547 -2.935547,-2.935547 z m -8.550781,1.617187 c -1.038981,0 -1.880859,0.843832 -1.880859,1.882813 0,1.03898 0.841878,1.880859 1.880859,1.880859 1.038981,0 1.880859,-0.841879 1.880859,-1.880859 0,-1.038981 -0.841878,-1.882813 -1.880859,-1.882813 z"
           id="path4629"
           inkscape:connector-curvature="0" />
        <g
           inkscape:groupmode="maskhelper"
           id="g4741"
           clip-path="url(#clipPath4744)"
           transform="translate(80,0)">
          <path
             id="path4731"
             d="m -52.292969,6.9394531 c 0,0 -24.700615,1.7547487 -43.546875,12.2324219 -18.846266,10.477673 -29.521486,28.869141 -29.521486,28.869141 z m 13.699219,4.2421879 c 0,0 -37.338187,12.039334 -53.243098,21.649935 -15.904902,9.6106 -31.567452,23.201627 -31.567452,23.201627 0,0 23.11294,-8.98387 39.225068,-17.76937 16.112128,-8.7855 45.585482,-27.082192 45.585482,-27.082192 z m -18.878906,17.001953 -49.132814,31.193359 c 0,0 19.119354,0.92316 32.619142,-7.542969 13.49979,-8.466129 16.513672,-23.65039 16.513672,-23.65039 z"
             style="color:#000000;fill:#f08cc0;fill-opacity:1;fill-rule:nonzero;stroke:none;stroke-width:1;marker:none;visibility:visible;display:inline;overflow:visible;filter:url(#filter4756);enable-background:accumulate"
             inkscape:connector-curvature="0"
             sodipodi:nodetypes="cscccscscccsc" />
        </g>
        <path
           style="opacity:0.6;color:#000000;fill:none;stroke:#00b0c2;stroke-width:1;stroke-opacity:1;marker:none;visibility:visible;display:inline;overflow:visible;filter:url(#filter4842);enable-background:accumulate"
           d="M 15.005125,32.775071 41.75339,12.289814"
           id="path4788"
           inkscape:connector-curvature="0"
           sodipodi:nodetypes="cc" />
        <path
           style="opacity:0.6;color:#000000;fill:#00b1fc;fill-opacity:1;fill-rule:nonzero;stroke:none;stroke-width:1;marker:none;visibility:visible;display:inline;overflow:visible;filter:url(#filter4884);enable-background:accumulate"
           d="M -36.289567,57.541682 C 7.0132649,40.783242 28.542356,22.475359 28.542356,22.475359 c 0,0 -18.117591,16.415533 -28.74622997,22.222263 C -11.408537,50.81905 -36.289567,57.541682 -36.289567,57.541682 Z"
           id="path4766"
           inkscape:connector-curvature="0"
           sodipodi:nodetypes="ccsc" />
        <path
           sodipodi:nodetypes="cc"
           inkscape:connector-curvature="0"
           id="path4846"
           d="M 29.749291,31.470278 35.88182,20.640492"
           style="opacity:0.6;color:#000000;fill:none;stroke:#00b0c2;stroke-width:1;stroke-opacity:1;marker:none;visibility:visible;display:inline;overflow:visible;filter:url(#filter4842);enable-background:accumulate" />
        <path
           style="opacity:0.4;color:#000000;fill:#ffbae3;fill-opacity:1;stroke:none;stroke-width:1;marker:none;visibility:visible;display:inline;overflow:visible;filter:url(#filter4878);enable-background:accumulate"
           d="M -23.853255,58.153304 C 1.2232437,50.609967 19.164153,34.096175 19.164153,34.096175 c 0,0 -8.76337,11.213185 -18.34865711,16.717666 -6.57480369,3.710588 -24.66875089,7.339463 -24.66875089,7.339463 z"
           id="path4848"
           inkscape:connector-curvature="0"
           sodipodi:nodetypes="cccc" />
        <path
           sodipodi:nodetypes="cccc"
           inkscape:connector-curvature="0"
           id="path4882"
           d="m -60.523278,20.654449 c 15.257142,-7.442748 45.028856,-31.0028 45.028856,-31.0028 0,0 -9.055275,12.4691209 -18.640563,17.9736019 -6.460736,4.9285021 -26.388293,13.0291981 -26.388293,13.0291981 z"
           style="opacity:0.4;color:#000000;fill:#fff7fc;fill-opacity:1;stroke:none;stroke-width:1;marker:none;visibility:visible;display:inline;overflow:visible;filter:url(#filter4878);enable-background:accumulate"
           transform="matrix(-0.9956428,-0.09324919,0.09324919,-0.9956428,-42.60511,36.192161)" />
        <path
           style="opacity:0.7;color:#000000;fill:none;stroke:#ffffff;stroke-width:0.5;stroke-miterlimit:4;stroke-dasharray:none;marker:none;visibility:visible;display:inline;overflow:visible;filter:url(#filter4980);enable-background:accumulate"
           d="M -50.76462,52.648707 C -23.037759,22.067611 39.959298,5.7576928 39.959298,5.7576928"
           id="path4966"
           inkscape:connector-curvature="0"
           sodipodi:nodetypes="cc" />
        <path
           style="opacity:0.1;color:#000000;fill:#0236ff;fill-opacity:1;fill-rule:nonzero;stroke:none;stroke-width:0.5;marker:none;visibility:visible;display:inline;overflow:visible;filter:url(#filter5052);enable-background:accumulate"
           d="M -28.950104,38.581402 14.8828,16.766887 -9.5820767,26.960586 Z"
           id="path5018"
           inkscape:connector-curvature="0" />
        <path
           style="color:#000000;fill:#ffffff;fill-opacity:1;fill-rule:nonzero;stroke:none;stroke-width:0.5;marker:none;visibility:visible;display:inline;overflow:visible;filter:url(#filter5066);enable-background:accumulate"
           d="m -33.084669,38.736347 c 21.993925,-15.575972 55.306932,-26.862435 55.306932,-26.862435 0,0 -24.0884747,6.584066 -33.313007,11.286463 -9.224533,4.702397 -21.993925,15.575972 -21.993925,15.575972 z"
           id="path5056"
           inkscape:connector-curvature="0"
           sodipodi:nodetypes="cczc" />
      </g>
      <g
         transform="translate(110,0)"
         id="g5264">
        <path
           style="color:#000000;fill:#e6ffff;fill-opacity:1;fill-rule:nonzero;stroke:#00ecff;stroke-width:1;stroke-miterlimit:4;stroke-opacity:1;stroke-dasharray:none;marker:none;visibility:visible;display:inline;overflow:visible;filter:url(#filter5260);enable-background:accumulate"
           d="m -42.42599,71.527437 c 4.892975,20.713596 27.433282,15.135603 27.433282,15.135603 0,0 -9.884691,7.57503 -18.625927,3.457703 -8.741235,-4.117326 -8.807355,-18.593306 -8.807355,-18.593306 z"
           id="path5088"
           inkscape:connector-curvature="0"
           sodipodi:nodetypes="cczc" />
        <path
           style="color:#000000;fill:#0070ba;fill-opacity:1;fill-rule:nonzero;stroke:none;stroke-width:5;marker:none;visibility:visible;display:inline;overflow:visible;enable-background:accumulate"
           d="m -40.183594,74.130859 c -1.322339,0 -2.394531,1.072193 -2.394531,2.394532 0,1.322339 1.072192,2.394531 2.394531,2.394531 1.322339,0 2.394532,-1.072192 2.394532,-2.394531 0,-1.322339 -1.072193,-2.394532 -2.394532,-2.394532 z m 30.886719,6.5 c -0.604498,0 -1.095703,0.489253 -1.095703,1.09375 0,0.604498 0.491205,1.09375 1.095703,1.09375 0.604498,0 1.09375,-0.489252 1.09375,-1.09375 0,-0.604497 -0.489252,-1.09375 -1.09375,-1.09375 z m -26.474609,0.478516 c -1.246777,0 -2.257813,1.011036 -2.257813,2.257813 0,1.246776 1.011036,2.255859 2.257813,2.255859 1.246776,0 2.257812,-1.009083 2.257812,-2.255859 0,-1.246777 -1.011036,-2.257813 -2.257812,-2.257813 z m 22.916015,0.238281 c -0.736731,0 -1.333984,0.597253 -1.333984,1.333985 0,0.736731 0.597253,1.333984 1.333984,1.333984 0.736732,0 1.333985,-0.597253 1.333985,-1.333984 0,-0.736732 -0.597253,-1.333985 -1.333985,-1.333985 z m -4.34375,1.984375 c -0.736731,0 -1.333984,0.597253 -1.333984,1.333985 0,0.736731 0.597253,1.333984 1.333984,1.333984 0.736732,0 1.333985,-0.597253 1.333985,-1.333984 0,-0.736732 -0.597253,-1.333985 -1.333985,-1.333985 z m -6.052734,2.121094 c -0.963419,0 -1.746094,0.780722 -1.746094,1.744141 0,0.963418 0.782675,1.74414 1.746094,1.74414 0.963418,0 1.744141,-0.780722 1.744141,-1.74414 0,-0.963419 -0.780723,-1.744141 -1.744141,-1.744141 z m -6.5,0.410156 c -1.246777,0 -2.257813,1.011036 -2.257813,2.257813 0,1.246776 1.011036,2.257812 2.257813,2.257812 1.246777,0 2.257812,-1.011036 2.257812,-2.257812 0,-1.246777 -1.011035,-2.257813 -2.257812,-2.257813 z"
           id="path4671"
           inkscape:connector-curvature="0" />
        <g
           inkscape:groupmode="maskhelper"
           id="g5207"
           clip-path="url(#clipPath5210)"
           transform="translate(-30,0)"
           style="filter:url(#filter5254)">
          <path
             inkscape:connector-curvature="0"
             id="path5196"
             d="m -16.243318,68.721853 c 0,0 5.039812,16.466678 13.928865,20.094553 C 2.5509961,90.802134 10.082031,88 10.082031,88 -5.0535728,86.956165 -11.650445,76.159176 -16.243318,68.721853 Z m 35.895662,11.491038 c -2.340359,-10e-7 -5.599605,0.779208 -9.279297,3.765625 l 0.630859,1.688745 c 3.522768,-2.859058 6.656882,-3.932453 8.778917,-3.932453 2.122035,0 3.191786,0.148004 3.191786,0.148004 l 0.480469,-0.876953 c 0,0 -1.462376,-0.792968 -3.802734,-0.792968 z"
             style="opacity:0.8;color:#000000;fill:#f695c8;fill-opacity:1;fill-rule:nonzero;stroke:none;stroke-width:1;marker:none;visibility:visible;display:inline;overflow:visible;enable-background:accumulate"
             sodipodi:nodetypes="csccsccsccs" />
          <path
             style="color:#000000;fill:none;stroke:#ffa4d9;stroke-width:2;stroke-linecap:round;stroke-linejoin:miter;stroke-miterlimit:4;stroke-opacity:1;stroke-dasharray:none;stroke-dashoffset:0;marker:none;visibility:visible;display:inline;overflow:visible;enable-background:accumulate"
             d="m -40.318117,80.400032 c 7.176364,10.699306 19.049984,8.350678 19.049984,8.350678"
             id="path5258"
             inkscape:connector-curvature="0"
             transform="translate(30,0)"
             sodipodi:nodetypes="cc" />
        </g>
        <path
           style="opacity:0.8;color:#000000;fill:#ffffff;fill-opacity:1;fill-rule:nonzero;stroke:none;stroke-width:0.5;marker:none;visibility:visible;display:inline;overflow:visible;filter:url(#filter5128);enable-background:accumulate"
           d="m -20.167519,84.930275 c 7.599117,-3.841312 9.185745,-4.843393 14.279659,-2.755724 -1.920656,-1.503122 -3.08975,-2.58871 -3.08975,-2.58871 l -4.342353,0.417534 z"
           id="path5090"
           inkscape:connector-curvature="0"
           sodipodi:nodetypes="ccccc" />
      </g>
      <path
         style="font-style:normal;font-variant:normal;font-weight:normal;font-stretch:normal;text-indent:0;text-align:start;text-decoration:none;line-height:normal;letter-spacing:normal;word-spacing:normal;text-transform:none;direction:ltr;block-progression:tb;writing-mode:lr-tb;text-anchor:start;baseline-shift:baseline;color:#000000;color-interpolation:sRGB;color-interpolation-filters:linearRGB;fill:#000000;fill-opacity:1;stroke:none;stroke-width:2;marker:none;visibility:visible;display:inline;overflow:visible;enable-background:accumulate;clip-rule:nonzero;color-rendering:auto;image-rendering:auto;shape-rendering:auto;text-rendering:auto;font-family:sans-serif;-inkscape-font-specification:sans-serif"
         d="M 141.96094,2.7675781 C 121.49192,3.0686835 77.588953,9.1420568 53.875,52.914062 l -0.171875,0.31836 0.07031,0.355469 c 0,0 2.841998,14.105108 6.199218,24.517578 0.03855,0.225213 2.092158,11.981994 12.423828,16.013672 7.142311,2.787109 12.348016,2.209287 16.46875,0.0625 4.120734,-2.146787 7.14871,-5.709829 10.41211,-8.744141 1.663466,-1.546694 4.933596,-2.089844 4.933596,-2.089844 l 1.50976,-0.205078 -0.78906,-1.302734 c -2.38012,-3.930337 -7.735111,-4.378719 -11.019531,-1.857422 -2.618615,2.01019 -5.017984,4.203596 -7.871093,4.419922 -6.06356,0.459745 -12.215723,-4.57084 -11.884766,-11.677735 0.127831,-2.745025 1.621985,-5.93229 3.722656,-7.210937 0.08363,0.01068 0.07254,0.01006 0.28711,0.05469 0.35771,0.0744 0.848361,0.189498 1.435546,0.324219 1.174372,0.269442 2.737406,0.616391 4.511719,0.886719 3.548627,0.540655 7.954898,0.797157 11.935547,-0.568359 10.676262,-3.662372 23.392492,-8.932364 31.710942,-17.482422 3.32835,-3.42103 5.0729,-7.58021 6.51562,-10.888672 0.72136,-1.654232 1.37267,-3.097681 2.04297,-4.107422 0.67029,-1.009742 1.28911,-1.527659 2.00781,-1.673828 0.1335,-0.02715 0.18984,-0.01837 0.43555,0.158203 0.24571,0.176577 0.57762,0.525037 0.9668,0.917969 0.38918,0.392932 0.84331,0.837745 1.46679,1.15625 0.62348,0.318504 1.44796,0.461778 2.28711,0.232422 1.96647,-0.537471 3.38345,-2.108385 4.3086,-3.898438 0.92514,-1.790053 1.39609,-3.846054 1.38671,-5.683594 -0.006,-1.130548 -0.3158,-2.052553 -0.45117,-2.724609 -0.13536,-0.672056 -0.14775,-0.945758 0.11719,-1.306641 0.79328,-1.080543 2.35143,-1.255151 4.15234,-1.384765 0.90046,-0.06481 1.8159,-0.110739 2.68555,-0.392579 0.86965,-0.281839 1.755,-0.946496 2.06641,-1.990234 0.43788,-1.467646 0.37412,-2.771131 -0.0469,-3.847656 -0.421,-1.076525 -1.15009,-1.895758 -1.90234,-2.595703 -1.5045,-1.3998902 -3.06822,-2.4387183 -3.55469,-3.7226565 -0.0948,-0.2503411 0.0542,-0.6844081 0.42383,-1.1601563 0.36962,-0.4757481 0.81445,-0.8222656 0.81445,-0.8222656 l 1.93164,-1.4746094 -2.41211,-0.3105468 c 0,0 -4.21801,-0.5417747 -11.04101,-0.4414063 z m -0.0273,1.9804688 c 4.49708,-0.061432 7.21154,0.1233576 8.91602,0.2753906 -0.46128,0.7057802 -0.87399,1.6131633 -0.47656,2.6621094 0.81135,2.1414296 2.76408,3.2703741 4.0625,4.4785151 0.64921,0.604071 1.14384,1.198382 1.40234,1.859376 0.2585,0.660993 0.32891,1.418275 -0.008,2.546874 -0.11579,0.38809 -0.26099,0.49466 -0.76563,0.658204 -0.50463,0.163543 -1.30769,0.237726 -2.21093,0.302734 -1.80649,0.130015 -4.19533,0.25323 -5.6211,2.195312 -0.68879,0.938214 -0.6374,2.039678 -0.4668,2.886719 0.17061,0.847042 0.4083,1.589285 0.41211,2.337891 0.008,1.474753 -0.4027,3.286489 -1.16211,4.755859 -0.7594,1.46937 -1.83187,2.5509 -3.06054,2.886719 -0.37957,0.103743 -0.57279,0.05743 -0.84961,-0.08398 -0.27682,-0.141415 -0.60428,-0.42705 -0.95703,-0.783204 -0.35276,-0.356153 -0.72279,-0.776942 -1.22071,-1.134765 -0.49791,-0.357823 -1.22812,-0.649172 -2,-0.492188 -1.41525,0.287836 -2.4567,1.292107 -3.27539,2.525391 -0.81868,1.233284 -1.48429,2.754137 -2.20898,4.416016 -1.44939,3.323757 -3.11292,7.205048 -6.11719,10.292968 -7.88995,8.109642 -20.34928,13.356228 -30.925779,16.984375 -3.469901,1.190311 -7.596501,1.000837 -10.986329,0.484375 -1.694913,-0.25823 -3.202927,-0.5927 -4.365234,-0.859375 -0.581153,-0.133337 -1.074638,-0.250392 -1.476562,-0.333984 -0.401925,-0.08359 -0.611858,-0.17026 -1.083985,-0.123047 l -0.199219,0.01953 -0.175781,0.0957 c -3.139073,1.6951 -4.792829,5.587112 -4.953125,9.029297 -0.386495,8.299518 6.7716,14.31606 14.03125,13.765625 3.741223,-0.283664 6.438504,-2.908261 8.939453,-4.828125 1.955177,-1.500898 5.006391,-1.450783 6.984371,0.207032 -1.27035,0.344113 -2.847186,0.938334 -4.201168,2.197265 -3.374425,3.137543 -6.311573,6.528226 -9.972656,8.435547 C 84.280324,94.315525 79.887419,94.894725 73.125,92.255859 63.866987,88.643151 61.925781,77.691406 61.925781,77.691406 l -0.01172,-0.07031 -0.02148,-0.06836 C 58.663292,67.556856 55.943221,54.185568 55.818359,53.570312 79.116731,10.928559 121.93855,5.0211862 141.93359,4.7480469 Z"
         id="path4442"
         inkscape:connector-curvature="0" />
      <g
         transform="translate(40,2.2594669e-6)"
         id="g4427">
        <path
           sodipodi:type="arc"
           style="color:#000000;fill:#ffffff;fill-opacity:1;stroke:none;stroke-width:1.84735239;stroke-linecap:round;stroke-linejoin:miter;stroke-miterlimit:4;stroke-opacity:1;stroke-dasharray:none;stroke-dashoffset:0;marker:none;visibility:visible;display:inline;overflow:visible;enable-background:accumulate"
           id="path4055"
           sodipodi:cx="46.179249"
           sodipodi:cy="63.803059"
           sodipodi:rx="11.440429"
           sodipodi:ry="11.440429"
           d="m 57.619678,63.803059 c 0,6.318374 -5.122055,11.440428 -11.440429,11.440428 -6.318375,0 -11.440429,-5.122054 -11.440429,-11.440428 0,-6.318375 5.122054,-11.440429 11.440429,-11.440429 6.318374,0 11.440429,5.122054 11.440429,11.440429 z"
           transform="matrix(1.0826305,0,0,1.0826305,-31.853406,-3.5601908)" />
        <g
           id="g4359">
          <path
             transform="matrix(1.6953846,0,0,1.6953846,-65.06997,-43.304227)"
             d="m 54.179198,62.984692 c 0,2.398215 -1.944138,4.342352 -4.342353,4.342352 -2.398215,0 -4.342352,-1.944137 -4.342352,-4.342352 0,-2.398215 1.944137,-4.342353 4.342352,-4.342353 2.398215,0 4.342353,1.944138 4.342353,4.342353 z"
             sodipodi:ry="4.3423524"
             sodipodi:rx="4.3423524"
             sodipodi:cy="62.984692"
             sodipodi:cx="49.836845"
             id="path4057"
             style="color:#000000;fill:#221d1f;fill-opacity:1;stroke:none;stroke-width:1;marker:none;visibility:visible;display:inline;overflow:visible;enable-background:accumulate"
             sodipodi:type="arc" />
          <g
             style="stroke:#211e1e;stroke-width:2;stroke-miterlimit:4;stroke-opacity:1;stroke-dasharray:none;filter:url(#filter4316)"
             transform="translate(30,0)"
             clip-path="url(#clipPath4296-4)"
             id="g4293"
             inkscape:groupmode="maskhelper">
            <path
               style="color:#000000;fill:#ffffff;fill-opacity:1;stroke:#211e1e;stroke-width:2;stroke-miterlimit:4;stroke-opacity:1;stroke-dasharray:none;marker:none;visibility:visible;display:inline;overflow:visible;enable-background:accumulate"
               d="m -16.417983,67.960724 c -2.475161,-3.225693 -1.866735,-7.847147 1.358958,-10.322308 0.767002,-0.588543 1.642417,-1.020249 2.576261,-1.270472 l 4.176798,7.979577 z"
               id="path4059"
               inkscape:connector-curvature="0"
               sodipodi:nodetypes="csccc" />
          </g>
          <g
             style="filter:url(#filter4355)"
             transform="translate(30,0)"
             clip-path="url(#clipPath4327-6)"
             id="g4324"
             inkscape:groupmode="maskhelper">
            <path
               transform="matrix(1.6953846,0,0,1.6953846,-95.06997,-43.304227)"
               d="m 54.179198,62.984692 c 0,2.398215 -1.944138,4.342352 -4.342353,4.342352 -2.398215,0 -4.342352,-1.944137 -4.342352,-4.342352 0,-2.398215 1.944137,-4.342353 4.342352,-4.342353 2.398215,0 4.342353,1.944138 4.342353,4.342353 z"
               sodipodi:ry="4.3423524"
               sodipodi:rx="4.3423524"
               sodipodi:cy="62.984692"
               sodipodi:cx="49.836845"
               id="path4320"
               style="color:#000000;fill:none;stroke:#1a1a1a;stroke-width:0.41288567;stroke-miterlimit:4;stroke-dasharray:none;marker:none;visibility:visible;display:inline;overflow:visible;enable-background:accumulate"
               sodipodi:type="arc" />
          </g>
        </g>
        <g
           inkscape:groupmode="maskhelper"
           id="g4372"
           clip-path="url(#clipPath4375-1)"
           transform="translate(40,0)"
           style="filter:url(#filter4423)">
          <path
             sodipodi:nodetypes="ccsc"
             inkscape:connector-curvature="0"
             id="path4368"
             d="m -27.672084,74.835975 c 10.261313,2.084329 16.728078,-7.589096 16.728078,-7.589096 0,0 -0.211048,6.108523 -6.787431,8.711427 -6.213454,2.459258 -9.940647,-1.122331 -9.940647,-1.122331 z"
             style="color:#000000;fill:#8dd7f7;fill-opacity:1;fill-rule:nonzero;stroke:none;stroke-width:2;marker:none;visibility:visible;display:inline;overflow:visible;enable-background:accumulate" />
        </g>
        <path
           style="font-style:normal;font-variant:normal;font-weight:normal;font-stretch:normal;text-indent:0;text-align:start;text-decoration:none;line-height:normal;letter-spacing:normal;word-spacing:normal;text-transform:none;direction:ltr;block-progression:tb;writing-mode:lr-tb;text-anchor:start;baseline-shift:baseline;color:#000000;color-interpolation:sRGB;color-interpolation-filters:linearRGB;fill:#000000;fill-opacity:1;stroke:none;stroke-width:1.84735239;marker:none;visibility:visible;display:inline;overflow:visible;enable-background:accumulate;clip-rule:nonzero;color-rendering:auto;image-rendering:auto;shape-rendering:auto;text-rendering:auto;font-family:sans-serif;-inkscape-font-specification:sans-serif"
           d="m 18.142133,52.12973 c -7.380905,0 -13.3869808,6.00396 -13.3869808,13.384865 0,7.380905 6.0060758,13.386981 13.3869808,13.386981 7.380904,0 13.384865,-6.006076 13.384865,-13.386981 0,-7.380905 -6.003961,-13.384865 -13.384865,-13.384865 z m 0,2.000329 c 6.300024,0 11.384535,5.084512 11.384535,11.384536 0,6.300025 -5.084511,11.386651 -11.384535,11.386651 -6.300025,0 -11.3866521,-5.086626 -11.3866521,-11.386651 0,-6.300024 5.0866271,-11.384536 11.3866521,-11.384536 z"
           id="path4393"
           inkscape:connector-curvature="0" />
      </g>
    </g>
  </g>
  <g
     inkscape:groupmode="layer"
     id="layer3"
     inkscape:label="PLACE YOUR PICTOGRAM HERE"
     style="display:inline" />
  <g
     inkscape:groupmode="layer"
     id="layer2"
     inkscape:label="BADGE"
     style="display:none"
     sodipodi:insensitive="true">
    <g
       style="display:inline"
       transform="translate(-340.00001,-581)"
       id="g4394"
       clip-path="none">
      <g
         id="g855">
        <g
           inkscape:groupmode="maskhelper"
           id="g870"
           clip-path="url(#clipPath873)"
           style="opacity:0.6;filter:url(#filter891)">
          <path
             transform="matrix(1.4999992,0,0,1.4999992,-29.999795,-237.54282)"
             d="m 264,552.36218 c 0,6.62742 -5.37258,12 -12,12 -6.62742,0 -12,-5.37258 -12,-12 0,-6.62741 5.37258,-12 12,-12 6.62742,0 12,5.37259 12,12 z"
             sodipodi:ry="12"
             sodipodi:rx="12"
             sodipodi:cy="552.36218"
             sodipodi:cx="252"
             id="path844"
             style="color:#000000;fill:#000000;fill-opacity:1;fill-rule:nonzero;stroke:none;stroke-width:4;marker:none;visibility:visible;display:inline;overflow:visible;enable-background:accumulate"
             sodipodi:type="arc" />
        </g>
        <g
           id="g862">
          <path
             sodipodi:type="arc"
             style="color:#000000;fill:#f5f5f5;fill-opacity:1;fill-rule:nonzero;stroke:none;stroke-width:4;marker:none;visibility:visible;display:inline;overflow:visible;enable-background:accumulate"
             id="path4398"
             sodipodi:cx="252"
             sodipodi:cy="552.36218"
             sodipodi:rx="12"
             sodipodi:ry="12"
             d="m 264,552.36218 c 0,6.62742 -5.37258,12 -12,12 -6.62742,0 -12,-5.37258 -12,-12 0,-6.62741 5.37258,-12 12,-12 6.62742,0 12,5.37259 12,12 z"
             transform="matrix(1.4999992,0,0,1.4999992,-29.999795,-238.54282)" />
          <path
             transform="matrix(1.25,0,0,1.25,33,-100.45273)"
             d="m 264,552.36218 c 0,6.62742 -5.37258,12 -12,12 -6.62742,0 -12,-5.37258 -12,-12 0,-6.62741 5.37258,-12 12,-12 6.62742,0 12,5.37259 12,12 z"
             sodipodi:ry="12"
             sodipodi:rx="12"
             sodipodi:cy="552.36218"
             sodipodi:cx="252"
             id="path4400"
             style="color:#000000;fill:#dd4814;fill-opacity:1;fill-rule:nonzero;stroke:none;stroke-width:4;marker:none;visibility:visible;display:inline;overflow:visible;enable-background:accumulate"
             sodipodi:type="arc" />
          <path
             sodipodi:type="star"
             style="color:#000000;fill:#f5f5f5;fill-opacity:1;fill-rule:nonzero;stroke:none;stroke-width:3;marker:none;visibility:visible;display:inline;overflow:visible;enable-background:accumulate"
             id="path4459"
             sodipodi:sides="5"
             sodipodi:cx="666.19574"
             sodipodi:cy="589.50385"
             sodipodi:r1="7.2431178"
             sodipodi:r2="4.3458705"
             sodipodi:arg1="1.0471976"
             sodipodi:arg2="1.6755161"
             inkscape:flatsided="false"
             inkscape:rounded="0.1"
             inkscape:randomized="0"
             d="m 669.8173,595.77657 c -0.39132,0.22593 -3.62645,-1.90343 -4.07583,-1.95066 -0.44938,-0.0472 -4.05653,1.36297 -4.39232,1.06062 -0.3358,-0.30235 0.68963,-4.03715 0.59569,-4.47913 -0.0939,-0.44198 -2.5498,-3.43681 -2.36602,-3.8496 0.18379,-0.41279 4.05267,-0.59166 4.44398,-0.81759 0.39132,-0.22593 2.48067,-3.48704 2.93005,-3.4398 0.44938,0.0472 1.81505,3.67147 2.15084,3.97382 0.3358,0.30236 4.08294,1.2817 4.17689,1.72369 0.0939,0.44198 -2.9309,2.86076 -3.11469,3.27355 -0.18379,0.41279 0.0427,4.27917 -0.34859,4.5051 z"
             transform="matrix(1.511423,-0.16366377,0.16366377,1.511423,-755.37346,-191.93651)" />
        </g>
      </g>
    </g>
  </g>
</svg>
