<?xml version="1.0" encoding="UTF-8" standalone="no"?>
<svg enable-background="new 0 0 1190.55 841.89" height="187.99884" viewBox="0 0 513.99998 187.99884" width="514" xmlns="http://www.w3.org/2000/svg">
   <g transform="matrix(.89177832 0 0 .89177832 -273.85378 -285.18294)">
      <circle cx="408.54199" cy="421.246" fill="#e95420" r="99.211998"/>
      <circle cx="414.21201" cy="415.57599" fill="#fff" r="6.1420002"/>
      <path d="m419.881 404.237h-11.338v-45.354c0-10.94 8.902-19.842 19.842-19.842 10.941 0 19.842 8.902 19.842 19.842v11.339l-11.338-.001v-11.338c0-2.272-.885-4.408-2.491-6.014-1.606-1.604-3.741-2.491-6.013-2.491-4.689 0-8.504 3.816-8.504 8.505z" fill="#fff"/>
      <path d="m456.731 424.079c-10.941 0-19.843-8.9-19.843-19.842v-28.345h11.338v28.345c0 4.69 3.815 8.505 8.504 8.505 4.689 0 8.503-3.814 8.503-8.505v-28.345h11.339v28.345c0 5.3-2.064 10.283-5.812 14.031-3.745 3.749-8.728 5.811-14.029 5.811z" fill="#fff"/>
      <circle cx="357.51901" cy="483.60501" fill="#fff" r="6.1420002"/>
      <path d="m363.188 472.269h-11.338v-62.361c0-10.941 8.901-19.842 19.843-19.842 10.941 0 19.842 8.901 19.842 19.842v11.339h-11.339v-11.339c0-2.272-.884-4.408-2.491-6.014-1.606-1.604-3.742-2.491-6.013-2.491-4.689 0-8.504 3.816-8.504 8.505z" fill="#fff"/>
      <path d="m400.039 475.103c-10.941 0-19.843-8.901-19.843-19.844v-28.345h11.339v28.347c0 4.687 3.815 8.503 8.504 8.503 4.689 0 8.504-3.816 8.504-8.505v-28.345h11.338v28.347c0 5.298-2.064 10.28-5.812 14.029-3.748 3.748-8.731 5.813-14.03 5.813z" fill="#fff"/>
      <path d="m620.714 446.453c0 6.743-.677 12.978-2.021 18.707-1.351 5.731-3.678 10.719-6.979 14.966-3.307 4.247-7.686 7.553-13.146 9.909-5.46 2.358-12.306 3.541-20.528 3.541-4.854 0-9.304-.44-13.348-1.315-4.044-.879-7.619-1.921-10.719-3.135-3.104-1.214-5.698-2.494-7.787-3.842-2.092-1.348-3.675-2.562-4.753-3.641l6.472-11.124c1.214 1.08 2.731 2.26 4.551 3.539 1.82 1.283 3.944 2.461 6.371 3.539 2.426 1.081 5.122 1.956 8.09 2.63 2.964.675 6.2 1.011 9.708 1.011 10.38 0 18.031-2.731 22.955-8.19 4.92-5.461 7.381-14.797 7.381-28.011v-94.652h13.754v96.068z"/>
      <path d="m729.256 486.901c-3.911 1.081-9.171 2.293-15.774 3.641-6.608 1.347-14.697 2.021-24.27 2.021-7.822 0-14.359-1.146-19.619-3.438-5.258-2.291-9.504-5.526-12.74-9.708-3.236-4.178-5.562-9.234-6.979-15.169-1.415-5.931-2.123-12.47-2.123-19.616v-58.652h13.146v54.403c0 7.417.538 13.688 1.618 18.81 1.078 5.126 2.832 9.271 5.258 12.438 2.429 3.169 5.562 5.46 9.405 6.875 3.843 1.418 8.526 2.125 14.056 2.125 6.201 0 11.594-.336 16.18-1.012 4.584-.672 7.483-1.28 8.697-1.82v-91.819h13.146v100.921z"/>
      <path d="m739.185 528.362c-1.483 0-3.338-.203-5.562-.606-2.226-.405-3.874-.88-4.955-1.417l1.82-10.719c.945.269 2.225.537 3.842.809 1.619.27 3.17.405 4.652.405 7.954 0 13.246-2.226 15.876-6.675 2.63-4.449 3.944-11.124 3.944-20.022v-104.157h13.146v103.55c0 13.213-2.497 22.986-7.484 29.325-4.989 6.336-13.418 9.507-25.279 9.507z"/>
      <path d="m881.221 486.901c-3.913 1.081-9.171 2.293-15.774 3.641-6.608 1.347-14.698 2.021-24.27 2.021-7.822 0-14.359-1.146-19.619-3.438-5.258-2.291-9.505-5.526-12.74-9.708-3.236-4.178-5.562-9.234-6.979-15.169-1.416-5.931-2.123-12.47-2.123-19.616v-58.652h13.146v54.403c0 7.417.535 13.688 1.617 18.81 1.078 5.126 2.831 9.271 5.258 12.438 2.428 3.169 5.562 5.46 9.404 6.875 3.844 1.418 8.527 2.125 14.057 2.125 6.199 0 11.594-.336 16.18-1.012 4.584-.672 7.483-1.28 8.697-1.82v-91.819h13.146z"/>
   </g>
</svg>
