<?xml version="1.0" encoding="UTF-8" standalone="no"?>
<!-- Created with Inkscape (http://www.inkscape.org/) -->

<svg
   xmlns:dc="http://purl.org/dc/elements/1.1/"
   xmlns:cc="http://creativecommons.org/ns#"
   xmlns:rdf="http://www.w3.org/1999/02/22-rdf-syntax-ns#"
   xmlns:svg="http://www.w3.org/2000/svg"
   xmlns="http://www.w3.org/2000/svg"
   xmlns:xlink="http://www.w3.org/1999/xlink"
   xmlns:sodipodi="http://sodipodi.sourceforge.net/DTD/sodipodi-0.dtd"
   xmlns:inkscape="http://www.inkscape.org/namespaces/inkscape"
   width="96"
   height="96"
   id="svg6517"
   version="1.1"
   inkscape:version="0.91+devel r"
   sodipodi:docname="haproxy.svg"
   viewBox="0 0 96 96">
  <defs
     id="defs6519">
    <filter
       style="color-interpolation-filters:sRGB"
       inkscape:label="Inner Shadow"
       id="filter1121">
      <feFlood
         flood-opacity="0.59999999999999998"
         flood-color="rgb(0,0,0)"
         result="flood"
         id="feFlood1123" />
      <feComposite
         in="flood"
         in2="SourceGraphic"
         operator="out"
         result="composite1"
         id="feComposite1125" />
      <feGaussianBlur
         in="composite1"
         stdDeviation="1"
         result="blur"
         id="feGaussianBlur1127" />
      <feOffset
         dx="0"
         dy="2"
         result="offset"
         id="feOffset1129" />
      <feComposite
         in="offset"
         in2="SourceGraphic"
         operator="atop"
         result="composite2"
         id="feComposite1131" />
    </filter>
    <filter
       style="color-interpolation-filters:sRGB"
       inkscape:label="Drop Shadow"
       id="filter950">
      <feFlood
         flood-opacity="0.25"
         flood-color="rgb(0,0,0)"
         result="flood"
         id="feFlood952" />
      <feComposite
         in="flood"
         in2="SourceGraphic"
         operator="in"
         result="composite1"
         id="feComposite954" />
      <feGaussianBlur
         in="composite1"
         stdDeviation="4"
         result="blur"
         id="feGaussianBlur956" />
      <feOffset
         dx="0"
         dy="1"
         result="offset"
         id="feOffset958" />
      <feComposite
         in="SourceGraphic"
         in2="offset"
         operator="over"
         result="composite2"
         id="feComposite960" />
    </filter>
    <linearGradient
       id="Background">
      <stop
         id="stop4178"
         offset="0"
         style="stop-color:#22779e;stop-opacity:1" />
      <stop
         id="stop4180"
         offset="1"
         style="stop-color:#2991c0;stop-opacity:1" />
    </linearGradient>
    <clipPath
       clipPathUnits="userSpaceOnUse"
       id="clipPath873">
      <g
         transform="matrix(0,-0.66666667,0.66604479,0,-258.25992,677.00001)"
         id="g875"
         inkscape:label="Layer 1"
         style="display:inline;fill:#ff00ff;fill-opacity:1;stroke:none">
        <path
           style="display:inline;fill:#ff00ff;fill-opacity:1;stroke:none"
           d="M 46.702703,898.22775 H 97.297297 C 138.16216,898.22775 144,904.06497 144,944.92583 v 50.73846 c 0,40.86071 -5.83784,46.69791 -46.702703,46.69791 H 46.702703 C 5.8378378,1042.3622 0,1036.525 0,995.66429 v -50.73846 c 0,-40.86086 5.8378378,-46.69808 46.702703,-46.69808 z"
           id="path877"
           inkscape:connector-curvature="0"
           sodipodi:nodetypes="sssssssss" />
      </g>
    </clipPath>
    <filter
       inkscape:collect="always"
       id="filter891"
       inkscape:label="Badge Shadow">
      <feGaussianBlur
         inkscape:collect="always"
         stdDeviation="0.71999962"
         id="feGaussianBlur893" />
    </filter>
    <style
       id="style867"
       type="text/css"><![CDATA[
    .fil0 {fill:#1F1A17}
   ]]></style>
    <clipPath
       id="clipPath16">
      <path
         id="path18"
         d="M -9,-9 H 605 V 222 H -9 Z"
         inkscape:connector-curvature="0" />
    </clipPath>
    <clipPath
       id="clipPath116">
      <path
         id="path118"
         d="m 91.7368,146.3253 -9.7039,-1.577 -8.8548,-3.8814 -7.5206,-4.7308 -7.1566,-8.7335 -4.0431,-4.282 -3.9093,-1.4409 -1.034,2.5271 1.8079,2.6096 0.4062,3.6802 1.211,-0.0488 1.3232,-1.2069 -0.3569,3.7488 -1.4667,0.9839 0.0445,1.4286 -3.4744,-1.9655 -3.1462,-3.712 -0.6559,-3.3176 1.3453,-2.6567 1.2549,-4.5133 2.5521,-1.2084 2.6847,0.1318 2.5455,1.4791 -1.698,-8.6122 1.698,-9.5825 -1.8692,-4.4246 -6.1223,-6.5965 1.0885,-3.941 2.9002,-4.5669 5.4688,-3.8486 2.9007,-0.3969 3.225,-0.1094 -2.012,-8.2601 7.3993,-3.0326 9.2188,-1.2129 3.1535,2.0619 0.2427,5.5797 3.5178,5.8224 0.2426,4.6094 8.4909,-0.6066 7.8843,0.7279 -7.8843,-4.7307 1.3343,-5.701 4.9731,-7.763 4.8521,-2.0622 3.8814,1.5769 1.577,3.1538 8.1269,6.1861 1.5769,-1.3343 12.7363,-0.485 2.5473,2.0619 0.2426,3.6391 -0.849,1.5767 -0.6066,9.8251 -4.2454,8.4909 0.7276,3.7605 2.5475,-1.3343 7.1566,-6.6716 3.5175,-0.2424 3.8815,1.5769 3.8818,2.9109 1.9406,6.3077 11.4021,-0.7277 6.914,2.6686 5.5797,5.2157 4.0028,7.5206 0.9706,8.8546 -0.8493,10.3105 -2.1832,9.2185 -2.1836,2.9112 -3.0322,0.9706 -5.3373,-5.8224 -4.8518,-1.6982 -4.2455,7.0353 -4.2454,3.8815 -2.3049,1.4556 -9.2185,7.6419 -7.3993,4.0028 -7.3993,0.6066 -8.6119,-1.4556 -7.5206,-2.7899 -5.2158,-4.2454 -4.1241,-4.9734 -4.2454,-1.2129"
         inkscape:connector-curvature="0" />
    </clipPath>
    <clipPath
       id="clipPath128">
      <path
         id="path130"
         d="m 91.7368,146.3253 -9.7039,-1.577 -8.8548,-3.8814 -7.5206,-4.7308 -7.1566,-8.7335 -4.0431,-4.282 -3.9093,-1.4409 -1.034,2.5271 1.8079,2.6096 0.4062,3.6802 1.211,-0.0488 1.3232,-1.2069 -0.3569,3.7488 -1.4667,0.9839 0.0445,1.4286 -3.4744,-1.9655 -3.1462,-3.712 -0.6559,-3.3176 1.3453,-2.6567 1.2549,-4.5133 2.5521,-1.2084 2.6847,0.1318 2.5455,1.4791 -1.698,-8.6122 1.698,-9.5825 -1.8692,-4.4246 -6.1223,-6.5965 1.0885,-3.941 2.9002,-4.5669 5.4688,-3.8486 2.9007,-0.3969 3.225,-0.1094 -2.012,-8.2601 7.3993,-3.0326 9.2188,-1.2129 3.1535,2.0619 0.2427,5.5797 3.5178,5.8224 0.2426,4.6094 8.4909,-0.6066 7.8843,0.7279 -7.8843,-4.7307 1.3343,-5.701 4.9731,-7.763 4.8521,-2.0622 3.8814,1.5769 1.577,3.1538 8.1269,6.1861 1.5769,-1.3343 12.7363,-0.485 2.5473,2.0619 0.2426,3.6391 -0.849,1.5767 -0.6066,9.8251 -4.2454,8.4909 0.7276,3.7605 2.5475,-1.3343 7.1566,-6.6716 3.5175,-0.2424 3.8815,1.5769 3.8818,2.9109 1.9406,6.3077 11.4021,-0.7277 6.914,2.6686 5.5797,5.2157 4.0028,7.5206 0.9706,8.8546 -0.8493,10.3105 -2.1832,9.2185 -2.1836,2.9112 -3.0322,0.9706 -5.3373,-5.8224 -4.8518,-1.6982 -4.2455,7.0353 -4.2454,3.8815 -2.3049,1.4556 -9.2185,7.6419 -7.3993,4.0028 -7.3993,0.6066 -8.6119,-1.4556 -7.5206,-2.7899 -5.2158,-4.2454 -4.1241,-4.9734 -4.2454,-1.2129"
         inkscape:connector-curvature="0" />
    </clipPath>
    <linearGradient
       id="linearGradient3850"
       inkscape:collect="always">
      <stop
         id="stop3852"
         offset="0"
         style="stop-color:#000000;stop-opacity:1;" />
      <stop
         id="stop3854"
         offset="1"
         style="stop-color:#000000;stop-opacity:0;" />
    </linearGradient>
    <clipPath
       clipPathUnits="userSpaceOnUse"
       id="clipPath3095">
      <path
         d="M 976.648,389.551 H 134.246 V 1229.55 H 976.648 V 389.551"
         id="path3097"
         inkscape:connector-curvature="0" />
    </clipPath>
    <clipPath
       clipPathUnits="userSpaceOnUse"
       id="clipPath3195">
      <path
         d="m 611.836,756.738 -106.34,105.207 c -8.473,8.289 -13.617,20.102 -13.598,33.379 L 598.301,790.207 c -0.031,-13.418 5.094,-25.031 13.535,-33.469"
         id="path3197"
         inkscape:connector-curvature="0" />
    </clipPath>
    <clipPath
       clipPathUnits="userSpaceOnUse"
       id="clipPath3235">
      <path
         d="m 1095.64,1501.81 c 35.46,-35.07 70.89,-70.11 106.35,-105.17 4.4,-4.38 7.11,-10.53 7.11,-17.55 l -106.37,105.21 c 0,7 -2.71,13.11 -7.09,17.51"
         id="path3237"
         inkscape:connector-curvature="0" />
    </clipPath>
    <clipPath
       id="clipPath4591"
       clipPathUnits="userSpaceOnUse">
      <path
         inkscape:connector-curvature="0"
         d="m 1106.6009,730.43734 -0.036,21.648 c -0.01,3.50825 -2.8675,6.61375 -6.4037,6.92525 l -83.6503,7.33162 c -3.5205,0.30763 -6.3812,-2.29987 -6.3671,-5.8145 l 0.036,-21.6475 20.1171,-1.76662 -0.011,4.63775 c 0,1.83937 1.4844,3.19925 3.3262,3.0395 l 49.5274,-4.33975 c 1.8425,-0.166 3.3425,-1.78125 3.3538,-3.626 l 0.01,-4.63025 20.1,-1.7575"
         style="fill:#ff00ff;fill-opacity:1;fill-rule:nonzero;stroke:none"
         id="path4593" />
    </clipPath>
    <radialGradient
       gradientUnits="userSpaceOnUse"
       gradientTransform="matrix(-1.4333926,-2.2742838,1.1731823,-0.73941125,-174.08025,98.374394)"
       r="20.40658"
       fy="93.399292"
       fx="-26.508606"
       cy="93.399292"
       cx="-26.508606"
       id="radialGradient3856"
       xlink:href="#linearGradient3850"
       inkscape:collect="always" />
    <linearGradient
       gradientTransform="translate(-318.48033,212.32022)"
       gradientUnits="userSpaceOnUse"
       y2="993.19702"
       x2="-51.879555"
       y1="593.11615"
       x1="348.20132"
       id="linearGradient3895"
       xlink:href="#linearGradient3850"
       inkscape:collect="always" />
    <clipPath
       id="clipPath3906"
       clipPathUnits="userSpaceOnUse">
      <rect
         transform="scale(1,-1)"
         style="color:#000000;display:inline;overflow:visible;visibility:visible;opacity:0.8;fill:#ff00ff;stroke:none;stroke-width:4;marker:none;enable-background:accumulate"
         id="rect3908"
         width="1019.1371"
         height="1019.1371"
         x="357.9816"
         y="-1725.8152" />
    </clipPath>
    <clipPath
       clipPathUnits="userSpaceOnUse"
       id="clipPath4637">
      <path
         sodipodi:nodetypes="sssssssss"
         inkscape:connector-curvature="0"
         id="path4639"
         d="M -268,700.15563 V 666.4259 c 0,-27.24324 3.88785,-31.13513 31.10302,-31.13513 h 33.79408 c 27.21507,0 31.1029,3.89189 31.1029,31.13513 v 33.72973 c 0,27.24325 -3.88783,31.13514 -31.1029,31.13514 h -33.79408 c -27.21517,0 -31.10302,-3.89189 -31.10302,-31.13514 z"
         style="display:inline;fill:#df382c;fill-opacity:1;stroke:none" />
    </clipPath>
  </defs>
  <sodipodi:namedview
     id="base"
     pagecolor="#ffffff"
     bordercolor="#666666"
     borderopacity="1.0"
     inkscape:pageopacity="0.0"
     inkscape:pageshadow="2"
     inkscape:zoom="6.3664627"
     inkscape:cx="33.4705"
     inkscape:cy="60.53225"
     inkscape:document-units="px"
     inkscape:current-layer="layer1"
     showgrid="true"
     fit-margin-top="0"
     fit-margin-left="0"
     fit-margin-right="0"
     fit-margin-bottom="0"
     inkscape:window-width="1920"
     inkscape:window-height="1029"
     inkscape:window-x="0"
     inkscape:window-y="24"
     inkscape:window-maximized="1"
     showborder="true"
     showguides="false"
     inkscape:guide-bbox="true"
     inkscape:showpageshadow="false"
     inkscape:snap-global="true"
     inkscape:snap-bbox="true"
     inkscape:bbox-paths="true"
     inkscape:bbox-nodes="true"
     inkscape:snap-bbox-edge-midpoints="true"
     inkscape:snap-bbox-midpoints="true"
     inkscape:object-paths="true"
     inkscape:snap-intersection-paths="true"
     inkscape:object-nodes="true"
     inkscape:snap-smooth-nodes="true"
     inkscape:snap-midpoints="true"
     inkscape:snap-object-midpoints="true"
     inkscape:snap-center="true">
    <inkscape:grid
       type="xygrid"
       id="grid821" />
    <sodipodi:guide
       orientation="1,0"
       position="16,48"
       id="guide823" />
    <sodipodi:guide
       orientation="0,1"
       position="64,80"
       id="guide825" />
    <sodipodi:guide
       orientation="1,0"
       position="80,40"
       id="guide827" />
    <sodipodi:guide
       orientation="0,1"
       position="64,16"
       id="guide829" />
  </sodipodi:namedview>
  <metadata
     id="metadata6522">
    <rdf:RDF>
      <cc:Work
         rdf:about="">
        <dc:format>image/svg+xml</dc:format>
        <dc:type
           rdf:resource="http://purl.org/dc/dcmitype/StillImage" />
        <dc:title />
      </cc:Work>
    </rdf:RDF>
  </metadata>
  <g
     inkscape:label="BACKGROUND"
     inkscape:groupmode="layer"
     id="layer1"
     transform="translate(268,-635.29076)"
     style="display:inline">
    <path
       style="display:inline;fill:#e93549;fill-opacity:1;stroke:none;filter:url(#filter1121)"
       d="M -268,700.15563 V 666.4259 c 0,-27.24324 3.88785,-31.13513 31.10302,-31.13513 h 33.79408 c 27.21507,0 31.1029,3.89189 31.1029,31.13513 v 33.72973 c 0,27.24325 -3.88783,31.13514 -31.1029,31.13514 h -33.79408 c -27.21517,0 -31.10302,-3.89189 -31.10302,-31.13514 z"
       id="path6455"
       inkscape:connector-curvature="0"
       sodipodi:nodetypes="sssssssss" />
    <g
       inkscape:groupmode="maskhelper"
       id="g4592"
       clip-path="url(#clipPath4637)" />
    <path
       style="font-style:normal;font-variant:normal;font-weight:normal;font-stretch:normal;font-size:10.10745335px;line-height:77.99999714%;font-family:serif;-inkscape-font-specification:serif;text-align:center;letter-spacing:0px;word-spacing:0px;writing-mode:lr-tb;text-anchor:middle;fill:#ffffff;fill-opacity:1;stroke:none;stroke-width:1px;stroke-linecap:butt;stroke-linejoin:miter;stroke-opacity:1"
       d="m -249.60281,660.98398 v 1.9951 h 3.54482 v 23.87697 h -3.54482 v 1.97757 h 10.87484 v -1.97757 h -3.54482 v -11.97656 h 14.43742 v 11.97656 h -3.54482 v 1.97757 h 10.87483 v -1.97757 h -3.54179 v -23.87697 h 3.54179 v -1.9951 h -10.87483 v 1.9951 h 3.54482 v 9.62404 h -14.43742 v -9.62404 h 3.54482 v -1.9951 z m 43.38558,0 -9.92278,25.87207 h -2.44346 v 1.97757 h 7.83421 v -1.97757 h -3.05878 l 2.33197,-6.12011 h 11.71314 l 2.33196,6.12011 h -3.09656 v 1.97757 h 10.128 v -1.97757 h -2.74243 l -9.94053,-25.87207 z m 0.6153,4.51464 5.11257,13.24222 h -10.22173 z"
       id="path6483"
       inkscape:connector-curvature="0" />
    <path
       style="font-style:normal;font-variant:normal;font-weight:normal;font-stretch:normal;font-size:4.21143913px;line-height:77.99999714%;font-family:serif;-inkscape-font-specification:serif;text-align:center;letter-spacing:0.20240645px;word-spacing:0px;writing-mode:lr-tb;text-anchor:middle;fill:#ffffff;fill-opacity:1;stroke:none;stroke-width:1px;stroke-linecap:butt;stroke-linejoin:miter;stroke-opacity:1"
       d="m -220.17427,692.95568 c -0.79786,0 -1.52391,0.1304 -2.17663,0.38967 -0.65273,0.25399 -1.23251,0.63477 -1.7401,1.14255 -0.58053,0.58035 -1.01291,1.23957 -1.29789,1.98051 -0.27968,0.73573 -0.41915,1.57289 -0.41915,2.51071 0,0.93785 0.13985,1.77501 0.41915,2.51077 0.28347,0.73576 0.71736,1.39431 1.29789,1.97462 0.5023,0.5026 1.08208,0.8835 1.7401,1.14259 0.6633,0.25889 1.38897,0.38668 2.17663,0.38668 0.79294,0 1.51521,-0.12699 2.16793,-0.38086 0.65311,-0.2589 1.23553,-0.64067 1.7435,-1.14841 0.58016,-0.57517 1.01254,-1.23368 1.29751,-1.97462 0.28347,-0.74611 0.42784,-1.58328 0.42784,-2.51077 0,-1.80832 -0.51968,-3.26453 -1.55565,-4.36816 -1.03635,-1.10366 -2.39698,-1.65528 -4.08113,-1.65528 z m -29.90627,0.2109 v 0.83206 h 1.47666 v 9.94628 h -1.47666 v 0.82617 h 4.85178 v -0.82617 h -1.79603 v -4.25098 h 2.43175 c 1.16031,0 2.081,-0.29405 2.75981,-0.88475 0.67842,-0.5907 1.01631,-1.3841 1.01631,-2.37891 0,-1.00003 -0.33638,-1.79343 -1.01631,-2.37891 -0.67881,-0.5907 -1.5995,-0.88479 -2.75981,-0.88479 z m 11.49052,0 v 0.83206 h 1.47931 v 9.94628 h -1.47931 v 0.82617 h 4.69606 v -0.82617 h -1.64069 v -4.57031 h 1.73442 c 0.50797,0 0.9052,0.10696 1.19547,0.31937 0.29102,0.20711 0.60775,0.66776 0.95509,1.38281 l 1.81341,3.69434 h 2.73336 v -0.82617 h -1.41203 l -1.68756,-3.44239 c -0.20788,-0.42493 -0.44448,-0.75421 -0.70904,-0.98729 -0.26079,-0.23811 -0.56882,-0.40539 -0.93166,-0.50392 0.88593,-0.11415 1.55226,-0.3995 1.99824,-0.85546 0.45052,-0.46114 0.67654,-1.09168 0.67654,-1.88965 0,-0.98963 -0.30993,-1.75215 -0.92561,-2.291 -0.61153,-0.53892 -1.48082,-0.80863 -2.61052,-0.80863 z m 25.57001,0 v 0.83206 h 1.24234 l 3.38985,5.07421 -3.34299,4.87207 h -1.33606 v 0.82617 h 3.84113 v -0.82617 h -1.50009 l 2.83578,-4.14259 2.76586,4.14259 h -1.38293 v 0.82617 h 4.60271 v -0.82617 h -1.24536 l -3.65896,-5.4785 3.07011,-4.46778 h 1.30394 v -0.83206 h -3.79994 v 0.83206 h 1.49102 l -2.55458,3.73826 -2.48731,-3.73826 h 1.36819 v -0.83206 z m 11.79515,0 v 0.83206 h 1.087 l 3.58299,5.7744 v 4.17188 h -1.48536 v 0.82617 h 4.53808 v -0.82617 h -1.48233 v -4.32128 l 3.48926,-5.625 h 1.09569 v -0.83206 h -3.3721 v 0.83206 h 1.30356 l -2.89738,4.69335 -2.90041,-4.69335 h 1.35345 v -0.83206 z m -18.94941,0.62113 c 1.26954,0 2.22954,0.4368 2.87697,1.31248 0.64781,0.87046 0.96983,2.16385 0.96983,3.87889 0,1.70989 -0.32126,3.00329 -0.96983,3.87893 -0.64743,0.8705 -1.60743,1.30666 -2.87697,1.30666 -1.27446,-4e-5 -2.23522,-0.43616 -2.88265,-1.30666 -0.64781,-0.87564 -0.97285,-2.16904 -0.97285,-3.87893 0,-1.71504 0.32504,-3.00843 0.97285,-3.87889 0.64743,-0.87568 1.60819,-1.31248 2.88265,-1.31248 z m -26.85052,0.2109 h 2.05077 c 0.77216,0 1.3595,0.20674 1.76391,0.62109 0.40403,0.41446 0.60623,1.01775 0.60623,1.81054 0,0.78758 -0.20031,1.39087 -0.60623,1.81055 -0.40441,0.4145 -0.99175,0.62108 -1.76391,0.62108 h -2.05077 z m 11.49014,0 h 2.29417 c 0.78236,0 1.35836,0.18292 1.7314,0.55075 0.37418,0.36775 0.55937,0.93963 0.55937,1.71681 0,0.77722 -0.18519,1.3525 -0.55937,1.72558 -0.37417,0.36775 -0.94904,0.5537 -1.7314,0.5537 h -2.29417 z"
       id="path6485"
       inkscape:connector-curvature="0" />
  </g>
  <g
     inkscape:groupmode="layer"
     id="layer3"
     inkscape:label="PLACE YOUR PICTOGRAM HERE"
     style="display:inline" />
  <g
     inkscape:groupmode="layer"
     id="layer2"
     inkscape:label="BADGE"
     style="display:none"
     sodipodi:insensitive="true">
    <g
       style="display:inline"
       transform="translate(-340.00001,-581)"
       id="g4394"
       clip-path="none">
      <g
         id="g855">
        <g
           inkscape:groupmode="maskhelper"
           id="g870"
           clip-path="url(#clipPath873)"
           style="opacity:0.6;filter:url(#filter891)">
          <circle
             transform="matrix(1.4999992,0,0,1.4999992,-29.999795,-237.54282)"
             id="path844"
             style="color:#000000;display:inline;overflow:visible;visibility:visible;fill:#000000;fill-opacity:1;fill-rule:nonzero;stroke:none;stroke-width:4;marker:none;enable-background:accumulate"
             cx="252"
             cy="552.36218"
             r="12" />
        </g>
        <g
           id="g862">
          <circle
             style="color:#000000;display:inline;overflow:visible;visibility:visible;fill:#f5f5f5;fill-opacity:1;fill-rule:nonzero;stroke:none;stroke-width:4;marker:none;enable-background:accumulate"
             id="path4398"
             transform="matrix(1.4999992,0,0,1.4999992,-29.999795,-238.54282)"
             cx="252"
             cy="552.36218"
             r="12" />
          <circle
             transform="matrix(1.25,0,0,1.25,33,-100.45273)"
             id="path4400"
             style="color:#000000;display:inline;overflow:visible;visibility:visible;fill:#dd4814;fill-opacity:1;fill-rule:nonzero;stroke:none;stroke-width:4;marker:none;enable-background:accumulate"
             cx="252"
             cy="552.36218"
             r="12" />
          <path
             sodipodi:type="star"
             style="color:#000000;display:inline;overflow:visible;visibility:visible;fill:#f5f5f5;fill-opacity:1;fill-rule:nonzero;stroke:none;stroke-width:3;marker:none;enable-background:accumulate"
             id="path4459"
             sodipodi:sides="5"
             sodipodi:cx="666.19574"
             sodipodi:cy="589.50385"
             sodipodi:r1="7.2431178"
             sodipodi:r2="4.3458705"
             sodipodi:arg1="1.0471976"
             sodipodi:arg2="1.6755161"
             inkscape:flatsided="false"
             inkscape:rounded="0.1"
             inkscape:randomized="0"
             d="m 669.8173,595.77657 c -0.39132,0.22593 -3.62645,-1.90343 -4.07583,-1.95066 -0.44938,-0.0472 -4.05653,1.36297 -4.39232,1.06062 -0.3358,-0.30235 0.68963,-4.03715 0.59569,-4.47913 -0.0939,-0.44198 -2.5498,-3.43681 -2.36602,-3.8496 0.18379,-0.41279 4.05267,-0.59166 4.44398,-0.81759 0.39132,-0.22593 2.48067,-3.48704 2.93005,-3.4398 0.44938,0.0472 1.81505,3.67147 2.15084,3.97382 0.3358,0.30236 4.08294,1.2817 4.17689,1.72369 0.0939,0.44198 -2.9309,2.86076 -3.11469,3.27355 -0.18379,0.41279 0.0427,4.27917 -0.34859,4.5051 z"
             transform="matrix(1.511423,-0.16366377,0.16366377,1.511423,-755.37346,-191.93651)" />
        </g>
      </g>
    </g>
  </g>
</svg>
