<?xml version="1.0" encoding="UTF-8" standalone="no"?>
<!-- Created with Inkscape (http://www.inkscape.org/) -->

<svg
   xmlns:dc="http://purl.org/dc/elements/1.1/"
   xmlns:cc="http://creativecommons.org/ns#"
   xmlns:rdf="http://www.w3.org/1999/02/22-rdf-syntax-ns#"
   xmlns:svg="http://www.w3.org/2000/svg"
   xmlns="http://www.w3.org/2000/svg"
   xmlns:xlink="http://www.w3.org/1999/xlink"
   xmlns:sodipodi="http://sodipodi.sourceforge.net/DTD/sodipodi-0.dtd"
   xmlns:inkscape="http://www.inkscape.org/namespaces/inkscape"
   width="25.4mm"
   height="25.4mm"
   viewBox="0 0 25.4 25.4"
   id="svg4249"
   version="1.1"
   inkscape:version="0.91+devel r"
   sodipodi:docname="chaos-monkey_colours_squircle.svg">
  <defs
     id="defs4251">
    <linearGradient
       inkscape:collect="always"
       id="linearGradient4210">
      <stop
         style="stop-color:#000000;stop-opacity:1;"
         offset="0"
         id="stop4212" />
      <stop
         style="stop-color:#000000;stop-opacity:0;"
         offset="1"
         id="stop4214" />
    </linearGradient>
    <linearGradient
       inkscape:collect="always"
       id="linearGradient4173">
      <stop
         style="stop-color:#6b3c2b;stop-opacity:1"
         offset="0"
         id="stop4175" />
      <stop
         style="stop-color:#a95d40;stop-opacity:1"
         offset="1"
         id="stop4177" />
    </linearGradient>
    <filter
       style="color-interpolation-filters:sRGB"
       inkscape:label="Inner Shadow"
       id="filter1121">
      <feFlood
         flood-opacity="0.59999999999999998"
         flood-color="rgb(0,0,0)"
         result="flood"
         id="feFlood1123" />
      <feComposite
         in="flood"
         in2="SourceGraphic"
         operator="out"
         result="composite1"
         id="feComposite1125" />
      <feGaussianBlur
         in="composite1"
         stdDeviation="1"
         result="blur"
         id="feGaussianBlur1127" />
      <feOffset
         dx="0"
         dy="2"
         result="offset"
         id="feOffset1129" />
      <feComposite
         in="offset"
         in2="SourceGraphic"
         operator="atop"
         result="composite2"
         id="feComposite1131" />
    </filter>
    <filter
       inkscape:collect="always"
       style="color-interpolation-filters:sRGB"
       id="filter4200"
       x="-0.024"
       width="1.048"
       y="-0.024"
       height="1.048">
      <feGaussianBlur
         inkscape:collect="always"
         stdDeviation="0.087974405"
         id="feGaussianBlur4202" />
    </filter>
    <filter
       inkscape:collect="always"
       style="color-interpolation-filters:sRGB"
       id="filter4206"
       x="-0.096"
       width="1.192"
       y="-0.096"
       height="1.192">
      <feGaussianBlur
         inkscape:collect="always"
         stdDeviation="0.35189762"
         id="feGaussianBlur4208" />
    </filter>
    <linearGradient
       inkscape:collect="always"
       xlink:href="#linearGradient4210"
       id="linearGradient4216"
       x1="-421.12213"
       y1="82.231171"
       x2="-416.4339"
       y2="82.231171"
       gradientUnits="userSpaceOnUse"
       spreadMethod="reflect"
       gradientTransform="translate(-0.03059077,0.36458333)" />
    <linearGradient
       inkscape:collect="always"
       xlink:href="#linearGradient4173"
       id="linearGradient4219"
       x1="-423.16037"
       y1="65.24778"
       x2="-416.58374"
       y2="90.473808"
       gradientUnits="userSpaceOnUse" />
    <filter
       inkscape:collect="always"
       style="color-interpolation-filters:sRGB"
       id="filter4309"
       x="-0.024"
       width="1.048"
       y="-0.024"
       height="1.048">
      <feGaussianBlur
         inkscape:collect="always"
         stdDeviation="0.087974405"
         id="feGaussianBlur4311" />
    </filter>
    <linearGradient
       inkscape:collect="always"
       id="linearGradient4173-9">
      <stop
         style="stop-color:#7843ad;stop-opacity:1"
         offset="0"
         id="stop4175-2" />
      <stop
         style="stop-color:#937fdb;stop-opacity:1"
         offset="1"
         id="stop4177-7" />
    </linearGradient>
    <linearGradient
       gradientTransform="translate(277.6,-625.69077)"
       inkscape:collect="always"
       xlink:href="#linearGradient4173-9"
       id="linearGradient908"
       x1="-229.44118"
       y1="636.22839"
       x2="-229.44118"
       y2="731.29077"
       gradientUnits="userSpaceOnUse" />
    <filter
       style="color-interpolation-filters:sRGB"
       inkscape:label="Inner Shadow"
       id="filter1121-5">
      <feFlood
         flood-opacity="0.59999999999999998"
         flood-color="rgb(0,0,0)"
         result="flood"
         id="feFlood1123-0" />
      <feComposite
         in="flood"
         in2="SourceGraphic"
         operator="out"
         result="composite1"
         id="feComposite1125-8" />
      <feGaussianBlur
         in="composite1"
         stdDeviation="1"
         result="blur"
         id="feGaussianBlur1127-6" />
      <feOffset
         dx="0"
         dy="2"
         result="offset"
         id="feOffset1129-5" />
      <feComposite
         in="offset"
         in2="SourceGraphic"
         operator="atop"
         result="composite2"
         id="feComposite1131-1" />
    </filter>
  </defs>
  <sodipodi:namedview
     id="base"
     pagecolor="#ffffff"
     bordercolor="#666666"
     borderopacity="1.0"
     inkscape:pageopacity="0.0"
     inkscape:pageshadow="2"
     inkscape:zoom="2.6077032"
     inkscape:cx="29.574735"
     inkscape:cy="54.068567"
     inkscape:document-units="mm"
     inkscape:current-layer="layer1"
     showgrid="false"
     fit-margin-top="0"
     fit-margin-left="0"
     fit-margin-right="0"
     fit-margin-bottom="0"
     inkscape:snap-bbox="true"
     inkscape:bbox-paths="true"
     inkscape:bbox-nodes="true"
     inkscape:snap-bbox-edge-midpoints="true"
     inkscape:snap-bbox-midpoints="true"
     inkscape:object-paths="true"
     inkscape:snap-intersection-paths="true"
     inkscape:snap-smooth-nodes="true"
     inkscape:snap-midpoints="true"
     inkscape:snap-object-midpoints="true"
     inkscape:snap-center="true"
     inkscape:snap-global="true"
     inkscape:snap-page="true"
     showguides="false"
     inkscape:guide-bbox="true">
    <inkscape:grid
       type="xygrid"
       id="grid4206" />
    <sodipodi:guide
       position="12.7,8.5462876"
       orientation="1,0"
       id="guide4249"
       inkscape:label=""
       inkscape:color="rgb(0,0,255)" />
  </sodipodi:namedview>
  <metadata
     id="metadata4254">
    <rdf:RDF>
      <cc:Work
         rdf:about="">
        <dc:format>image/svg+xml</dc:format>
        <dc:type
           rdf:resource="http://purl.org/dc/dcmitype/StillImage" />
        <dc:title></dc:title>
      </cc:Work>
    </rdf:RDF>
  </metadata>
  <g
     inkscape:label="Layer 1"
     inkscape:groupmode="layer"
     id="layer1"
     transform="translate(433.76548,-65.073809)">
    <path
       style="display:inline;fill:url(#linearGradient908);fill-opacity:1;stroke:none;filter:url(#filter1121-5)"
       d="M 9.6000004,74.46486 V 40.73513 C 9.6000004,13.49189 13.48785,9.6000004 40.70302,9.6000004 H 74.4971 c 27.21507,0 31.1029,3.8918896 31.1029,31.1351296 V 74.46486 C 105.6,101.70811 101.71217,105.6 74.4971,105.6 H 40.70302 C 13.48785,105.6 9.6000004,101.70811 9.6000004,74.46486 Z"
       id="path6455"
       inkscape:connector-curvature="0"
       sodipodi:nodetypes="sssssssss"
       transform="matrix(0.26458333,0,0,0.26458333,-436.30548,62.533811)" />
    <g
       id="g4211">
      <circle
         transform="rotate(-120)"
         inkscape:transform-center-x="-3.7735543"
         inkscape:transform-center-y="-2.17872"
         cy="-399.44754"
         cx="142.7204"
         id="circle4258"
         style="color:#000000;display:inline;overflow:visible;visibility:visible;opacity:1;fill:#b5baea;fill-opacity:1;fill-rule:nonzero;stroke:none;stroke-width:0.06614583;stroke-linecap:butt;stroke-linejoin:bevel;stroke-miterlimit:4;stroke-dasharray:none;stroke-dashoffset:1;stroke-opacity:1;marker:none;enable-background:accumulate"
         r="4.3987203" />
      <path
         id="ellipse4298"
         d="m -411.74667,75.235464 a 5.6223427,5.6223427 0 0 1 -1.76268,5.038968 2.6723602,2.6723605 60 0 0 2.2288,-0.201021 2.6723602,2.6723605 60 0 0 0.97824,-3.650423 2.6723602,2.6723605 60 0 0 -1.44436,-1.187524 z"
         style="color:#000000;display:inline;overflow:visible;visibility:visible;opacity:1;fill:#b5baea;fill-opacity:1;fill-rule:nonzero;stroke:none;stroke-width:0.06614583;stroke-linecap:butt;stroke-linejoin:bevel;stroke-miterlimit:4;stroke-dasharray:none;stroke-dashoffset:1;stroke-opacity:1;marker:none;enable-background:accumulate"
         inkscape:connector-curvature="0" />
      <path
         id="ellipse4300"
         d="m -430.41736,75.242698 a 2.6723602,2.6723605 60 0 0 -0.44184,0.202055 2.6723602,2.6723605 60 0 0 -0.97823,3.650423 2.6723602,2.6723605 60 0 0 3.18378,1.189592 5.6488129,5.6488129 0 0 1 -1.76371,-5.04207 z"
         style="color:#000000;display:inline;overflow:visible;visibility:visible;opacity:1;fill:#b5baea;fill-opacity:1;fill-rule:nonzero;stroke:none;stroke-width:0.06614583;stroke-linecap:butt;stroke-linejoin:bevel;stroke-miterlimit:4;stroke-dasharray:none;stroke-dashoffset:1;stroke-opacity:1;marker:none;enable-background:accumulate"
         inkscape:connector-curvature="0" />
      <circle
         transform="rotate(120)"
         cy="329.85925"
         cx="278.34512"
         id="circle4302"
         style="color:#000000;display:inline;overflow:visible;visibility:visible;opacity:1;fill:#b5baea;fill-opacity:1;fill-rule:nonzero;stroke:none;stroke-width:0.06614583;stroke-linecap:butt;stroke-linejoin:bevel;stroke-miterlimit:4;stroke-dasharray:none;stroke-dashoffset:1;stroke-opacity:1;marker:none;enable-background:accumulate"
         r="4.3987203" />
      <circle
         r="4.3987203"
         style="color:#000000;display:inline;overflow:visible;visibility:visible;opacity:1;fill:none;fill-opacity:1;fill-rule:nonzero;stroke:none;stroke-width:0.06614583;stroke-linecap:butt;stroke-linejoin:bevel;stroke-miterlimit:4;stroke-dasharray:none;stroke-dashoffset:1;stroke-opacity:1;marker:none;enable-background:accumulate"
         id="circle4260"
         cx="278.34512"
         cy="329.85925"
         inkscape:transform-center-y="-2.1786389"
         inkscape:transform-center-x="3.7735878"
         transform="rotate(120)" />
      <g
         id="g4251">
        <ellipse
           style="color:#000000;display:inline;overflow:visible;visibility:visible;opacity:1;fill:#e93549;fill-opacity:1;fill-rule:nonzero;stroke:none;stroke-width:0.52916664;stroke-linecap:butt;stroke-linejoin:bevel;stroke-miterlimit:4;stroke-dasharray:none;stroke-dashoffset:1;stroke-opacity:1;marker:none;enable-background:accumulate"
           id="path4214"
           cx="-424.09668"
           cy="77.69136"
           rx="2.873404"
           ry="2.6078522" />
        <path
           style="color:#000000;font-style:normal;font-variant:normal;font-weight:normal;font-stretch:normal;font-size:medium;line-height:normal;font-family:sans-serif;font-variant-ligatures:normal;font-variant-position:normal;font-variant-caps:normal;font-variant-numeric:normal;font-variant-alternates:normal;font-feature-settings:normal;text-indent:0;text-align:start;text-decoration:none;text-decoration-line:none;text-decoration-style:solid;text-decoration-color:#000000;letter-spacing:normal;word-spacing:normal;text-transform:none;direction:ltr;block-progression:tb;writing-mode:lr-tb;baseline-shift:baseline;text-anchor:start;white-space:normal;shape-padding:0;clip-rule:nonzero;display:inline;overflow:visible;visibility:visible;opacity:1;isolation:auto;mix-blend-mode:normal;color-interpolation:sRGB;color-interpolation-filters:linearRGB;solid-color:#000000;solid-opacity:1;fill:#fac82e;fill-opacity:1;fill-rule:evenodd;stroke:none;stroke-width:1.62029862;stroke-linecap:butt;stroke-linejoin:miter;stroke-miterlimit:4;stroke-dasharray:none;stroke-dashoffset:0;stroke-opacity:1;color-rendering:auto;image-rendering:auto;shape-rendering:auto;text-rendering:auto;enable-background:accumulate"
           d="m -421.07726,76.865803 c -0.51742,-1.228148 -1.71184,-2.130204 -3.12526,-2.110596 -1.63008,0.02261 -3.05795,1.348806 -3.03003,3.021432 0.024,1.440786 1.1986,2.702933 2.67943,2.673759 1.2701,-0.02502 2.38123,-1.062332 2.35124,-2.370197 -0.0256,-1.116744 -0.9395,-2.093655 -2.09196,-2.063225 -0.97951,0.02586 -1.8356,0.8293 -1.80505,1.842692 0.0258,0.857219 0.73098,1.605876 1.62046,1.57546 0.74873,-0.0256 1.40179,-0.642389 1.37171,-1.421981 -0.0252,-0.652969 -0.56437,-1.222818 -1.247,-1.193218 -0.56888,0.02467 -1.0655,0.496438 -1.03647,1.093998 0.0241,0.495457 0.43689,0.92689 0.96027,0.898468 0.42566,-0.02311 0.78988,-0.376833 0.77361,-0.826698 0.002,0.01802 0.0202,0.02969 0.0209,0.04797 0.0181,0.468213 -0.39328,0.856542 -0.86149,0.872553 -0.57877,0.01979 -1.05524,-0.486317 -1.07261,-1.062464 -0.0212,-0.703303 0.59201,-1.279668 1.28994,-1.298097 0.84295,-0.02226 1.52947,0.711494 1.54861,1.546186 0.0229,0.998886 -0.84498,1.809475 -1.83259,1.828933 -1.17235,0.0231 -2.12042,-0.994455 -2.13975,-2.152344 -0.0228,-1.364615 1.16138,-2.465655 2.50819,-2.48434 1.57699,-0.02188 2.84624,1.346793 2.86372,2.902457 0.0177,1.573924 -1.18694,2.933664 -2.72277,3.221011 l 0.0967,0.519959 c 1.7824,-0.33348 3.17562,-1.901645 3.15489,-3.746914 -0.005,-0.459824 -0.10216,-0.90542 -0.27464,-1.314802 z m -3.34606,1.01309 0.0586,0.185969 c -0.0645,0.0068 -0.1024,-0.03159 -0.10651,-0.07541 -0.003,-0.0356 0.0118,-0.05013 0.0291,-0.05158 0.001,-9.2e-5 -0.0128,-0.01359 -0.0139,-0.02874 -10e-4,-0.01334 0.0241,-0.0173 0.0328,-0.03024 z"
           id="path4250"
           inkscape:connector-curvature="0" />
        <ellipse
           ry="2.6078522"
           rx="2.8529768"
           cy="77.69136"
           cx="-418.05707"
           id="ellipse4216"
           style="color:#000000;display:inline;overflow:visible;visibility:visible;opacity:1;fill:#e93549;fill-opacity:1;fill-rule:nonzero;stroke:none;stroke-width:0.52916664;stroke-linecap:butt;stroke-linejoin:bevel;stroke-miterlimit:4;stroke-dasharray:none;stroke-dashoffset:1;stroke-opacity:1;marker:none;enable-background:accumulate" />
        <path
           style="color:#000000;font-style:normal;font-variant:normal;font-weight:normal;font-stretch:normal;font-size:medium;line-height:normal;font-family:sans-serif;font-variant-ligatures:normal;font-variant-position:normal;font-variant-caps:normal;font-variant-numeric:normal;font-variant-alternates:normal;font-feature-settings:normal;text-indent:0;text-align:start;text-decoration:none;text-decoration-line:none;text-decoration-style:solid;text-decoration-color:#000000;letter-spacing:normal;word-spacing:normal;text-transform:none;direction:ltr;block-progression:tb;writing-mode:lr-tb;baseline-shift:baseline;text-anchor:start;white-space:normal;shape-padding:0;clip-rule:nonzero;display:inline;overflow:visible;visibility:visible;opacity:1;isolation:auto;mix-blend-mode:normal;color-interpolation:sRGB;color-interpolation-filters:linearRGB;solid-color:#000000;solid-opacity:1;fill:#fac82e;fill-opacity:1;fill-rule:evenodd;stroke:none;stroke-width:1.62029862;stroke-linecap:butt;stroke-linejoin:miter;stroke-miterlimit:4;stroke-dasharray:none;stroke-dashoffset:0;stroke-opacity:1;color-rendering:auto;image-rendering:auto;shape-rendering:auto;text-rendering:auto;enable-background:accumulate"
           d="m -421.05722,76.865803 c 0.51742,-1.228148 1.71184,-2.130204 3.12526,-2.110596 1.63008,0.02261 3.05795,1.348806 3.03003,3.021432 -0.024,1.440786 -1.1986,2.702933 -2.67943,2.673759 -1.2701,-0.02502 -2.38123,-1.062332 -2.35124,-2.370197 0.0256,-1.116744 0.9395,-2.093655 2.09196,-2.063225 0.97951,0.02586 1.8356,0.8293 1.80505,1.842692 -0.0258,0.857219 -0.73098,1.605876 -1.62046,1.57546 -0.74873,-0.0256 -1.40179,-0.642389 -1.37171,-1.421981 0.0252,-0.652969 0.56437,-1.222818 1.247,-1.193218 0.56888,0.02467 1.0655,0.496438 1.03647,1.093998 -0.0241,0.495457 -0.43689,0.92689 -0.96027,0.898468 -0.42566,-0.02311 -0.78988,-0.376833 -0.77361,-0.826698 -0.002,0.01802 -0.0202,0.02969 -0.0209,0.04797 -0.0181,0.468213 0.39328,0.856542 0.86149,0.872553 0.57877,0.01979 1.05524,-0.486317 1.07261,-1.062464 0.0212,-0.703303 -0.59201,-1.279668 -1.28994,-1.298097 -0.84295,-0.02226 -1.52947,0.711494 -1.54861,1.546186 -0.0229,0.998886 0.84498,1.809475 1.83259,1.828933 1.17235,0.0231 2.12042,-0.994455 2.13975,-2.152344 0.0228,-1.364615 -1.16138,-2.465655 -2.50819,-2.48434 -1.57699,-0.02188 -2.84624,1.346793 -2.86372,2.902457 -0.0177,1.573924 1.18694,2.933664 2.72277,3.221011 l -0.0967,0.519959 c -1.7824,-0.33348 -3.17562,-1.901645 -3.15489,-3.746914 0.005,-0.459824 0.10216,-0.90542 0.27464,-1.314802 z m 3.34606,1.01309 -0.0586,0.185969 c 0.0645,0.0068 0.1024,-0.03159 0.10651,-0.07541 0.003,-0.0356 -0.0118,-0.05013 -0.0291,-0.05158 -0.001,-9.2e-5 0.0128,-0.01359 0.0139,-0.02874 10e-4,-0.01334 -0.0241,-0.0173 -0.0328,-0.03024 z"
           id="path4273"
           inkscape:connector-curvature="0" />
        <circle
           r="0.49922371"
           style="color:#000000;display:inline;overflow:visible;visibility:visible;opacity:1;fill:#333333;fill-opacity:1;fill-rule:nonzero;stroke:none;stroke-width:0.52916682;stroke-linecap:butt;stroke-linejoin:bevel;stroke-miterlimit:4;stroke-dasharray:none;stroke-dashoffset:1;stroke-opacity:1;marker:none;enable-background:accumulate"
           id="path4275"
           cx="-424.49808"
           cy="77.942444" />
        <circle
           r="0.49922371"
           cy="77.942444"
           cx="-417.63455"
           id="ellipse4279"
           style="color:#000000;display:inline;overflow:visible;visibility:visible;opacity:1;fill:#333333;fill-opacity:1;fill-rule:nonzero;stroke:none;stroke-width:0.52916682;stroke-linecap:butt;stroke-linejoin:bevel;stroke-miterlimit:4;stroke-dasharray:none;stroke-dashoffset:1;stroke-opacity:1;marker:none;enable-background:accumulate" />
      </g>
    </g>
    <path
       cx="-421.06549"
       cy="77.773811"
       r="12.7"
       id="path4221"
       style="color:#000000;display:inline;overflow:visible;visibility:visible;opacity:1;fill:url(#linearGradient4219);fill-opacity:1;fill-rule:nonzero;stroke:none;stroke-width:0.00264583;stroke-linecap:butt;stroke-linejoin:bevel;stroke-miterlimit:4;stroke-dasharray:none;stroke-dashoffset:1;stroke-opacity:1;marker:none;enable-background:accumulate" />
    <path
       cx="-421.06549"
       cy="77.773811"
       r="12.7"
       id="path4223"
       style="color:#000000;display:inline;overflow:visible;visibility:visible;opacity:1;fill:url(#linearGradient4219);fill-opacity:1;fill-rule:nonzero;stroke:none;stroke-width:0.00264583;stroke-linecap:butt;stroke-linejoin:bevel;stroke-miterlimit:4;stroke-dasharray:none;stroke-dashoffset:1;stroke-opacity:1;marker:none;enable-background:accumulate" />
    <path
       style="display:inline;fill:#ffffff;fill-opacity:1;stroke:none;stroke-width:0.26458332;opacity:0.07"
       d="m -421.06548,65.073809 v 25.4 h 4.47053 c 7.20066,0 8.22947,-1.029631 8.22947,-8.23774 v -8.92452 c 0,-7.208107 -1.02881,-8.23774 -8.22947,-8.23774 z"
       id="path4245"
       inkscape:connector-curvature="0" />
    <g
       id="g4254">
      <circle
         r="4.3987203"
         style="color:#000000;display:inline;overflow:visible;visibility:visible;opacity:0.1;fill:#000000;fill-opacity:1;fill-rule:nonzero;stroke:none;stroke-width:0.13229169;stroke-linecap:butt;stroke-linejoin:bevel;stroke-miterlimit:4;stroke-dasharray:none;stroke-dashoffset:1;stroke-opacity:1;marker:none;filter:url(#filter4200);enable-background:accumulate"
         id="circle4186"
         cx="-421.06543"
         cy="82.924911"
         inkscape:transform-center-y="16.625081"
         inkscape:transform-center-x="-1.5613089e-05" />
      <circle
         inkscape:transform-center-x="-1.5613089e-05"
         inkscape:transform-center-y="16.625081"
         cy="82.595749"
         cx="-421.09598"
         id="circle4204"
         style="color:#000000;display:inline;overflow:visible;visibility:visible;opacity:0.4;fill:url(#linearGradient4216);fill-opacity:1;fill-rule:nonzero;stroke:none;stroke-width:0.13229169;stroke-linecap:butt;stroke-linejoin:bevel;stroke-miterlimit:4;stroke-dasharray:none;stroke-dashoffset:1;stroke-opacity:1;marker:none;filter:url(#filter4206);enable-background:accumulate"
         r="4.3987203" />
      <circle
         inkscape:transform-center-x="-5.0312501e-05"
         inkscape:transform-center-y="4.3573636"
         cy="82.824913"
         cx="-421.06543"
         id="circle4295"
         style="color:#000000;display:inline;overflow:visible;visibility:visible;opacity:0.1;fill:#000000;fill-opacity:1;fill-rule:nonzero;stroke:none;stroke-width:0.06614583;stroke-linecap:butt;stroke-linejoin:bevel;stroke-miterlimit:4;stroke-dasharray:none;stroke-dashoffset:1;stroke-opacity:1;marker:none;filter:url(#filter4309);enable-background:accumulate"
         r="4.3987203" />
      <circle
         r="4.3987203"
         style="color:#000000;display:inline;overflow:visible;visibility:visible;opacity:1;fill:#dcdef5;fill-opacity:1;fill-rule:nonzero;stroke:none;stroke-width:0.06614583;stroke-linecap:butt;stroke-linejoin:bevel;stroke-miterlimit:4;stroke-dasharray:none;stroke-dashoffset:1;stroke-opacity:1;marker:none;enable-background:accumulate"
         id="circle4256"
         cx="-421.06543"
         cy="82.660332"
         inkscape:transform-center-y="4.3573636"
         inkscape:transform-center-x="-5.0312501e-05" />
      <path
         d="m -386.09785,186.03619 a 0.72313833,0.72313839 0 0 1 -0.36156,0.62626 0.72313833,0.72313839 0 0 1 -0.72314,0 0.72313833,0.72313839 0 0 1 -0.36157,-0.62626 l 0.72314,0 z"
         sodipodi:end="3.1415927"
         sodipodi:start="0"
         sodipodi:ry="0.72313839"
         sodipodi:rx="0.72313833"
         sodipodi:cy="186.03619"
         sodipodi:cx="-386.82098"
         sodipodi:type="arc"
         transform="rotate(15)"
         id="ellipse4289"
         style="color:#000000;display:inline;overflow:visible;visibility:visible;opacity:1;fill:#8866c8;fill-opacity:1;fill-rule:nonzero;stroke:none;stroke-width:0.06614583;stroke-linecap:butt;stroke-linejoin:bevel;stroke-miterlimit:4;stroke-dasharray:none;stroke-dashoffset:1;stroke-opacity:1;marker:none;enable-background:accumulate" />
      <path
         d="m 427.33816,-31.923328 a 0.72313833,0.72313839 0 0 1 -0.36157,0.626256 0.72313833,0.72313839 0 0 1 -0.72314,0 0.72313833,0.72313839 0 0 1 -0.36157,-0.626256 l 0.72314,0 z"
         sodipodi:end="3.1415927"
         sodipodi:start="0"
         sodipodi:ry="0.72313839"
         sodipodi:rx="0.72313833"
         sodipodi:cy="-31.923328"
         sodipodi:cx="426.61502"
         sodipodi:type="arc"
         transform="matrix(-0.96592583,0.25881905,0.25881905,0.96592583,0,0)"
         id="ellipse4293"
         style="color:#000000;display:inline;overflow:visible;visibility:visible;opacity:1;fill:#8866c8;fill-opacity:1;fill-rule:nonzero;stroke:none;stroke-width:0.06614583;stroke-linecap:butt;stroke-linejoin:bevel;stroke-miterlimit:4;stroke-dasharray:none;stroke-dashoffset:1;stroke-opacity:1;marker:none;enable-background:accumulate" />
      <path
         style="color:#000000;display:inline;overflow:visible;visibility:visible;opacity:0.3;fill:#ffffff;fill-opacity:1;fill-rule:nonzero;stroke:none;stroke-width:0.13229167;stroke-linecap:butt;stroke-linejoin:bevel;stroke-miterlimit:4;stroke-dasharray:none;stroke-dashoffset:1;stroke-opacity:1;marker:none;enable-background:accumulate"
         d="m -421.06536,78.24321 a 4.3987201,4.3987201 0 0 0 -4.39869,4.398698 4.3987201,4.3987201 0 0 0 0.004,0.118339 4.3987201,4.3987201 0 0 1 4.39456,-4.31705 4.3987201,4.3987201 0 0 1 4.39457,4.281393 4.3987201,4.3987201 0 0 0 0.004,-0.08268 4.3987201,4.3987201 0 0 0 -4.3987,-4.398698 z"
         id="path4293"
         inkscape:connector-curvature="0" />
      <circle
         inkscape:transform-center-x="-1.5613089e-05"
         style="color:#000000;display:inline;overflow:visible;visibility:visible;opacity:1;fill:#333333;fill-opacity:1;fill-rule:nonzero;stroke:none;stroke-width:0.06614583;stroke-linecap:butt;stroke-linejoin:bevel;stroke-miterlimit:4;stroke-dasharray:none;stroke-dashoffset:1;stroke-opacity:1;marker:none;enable-background:accumulate"
         id="ellipse4197"
         cx="-421.06543"
         cy="84.693413"
         inkscape:transform-center-y="4.1562601"
         r="1.0996777" />
    </g>
  </g>
</svg>
