<?xml version="1.0" encoding="UTF-8"?>
<svg id="Layer_1" data-name="Layer 1" xmlns="http://www.w3.org/2000/svg" viewBox="0 0 766.02 400">
  <defs>
    <style>
      .cls-1 {
        fill: #fff;
      }

      .cls-2 {
        fill: #f15d22;
      }
    </style>
  </defs>
  <rect class="cls-2" width="254.56" height="399.19"/>
  <path class="cls-1" d="m148.45,180.19c-16.07,0-29.15,13.02-29.15,29.02v53.29c2.57-1.02,5.37-1.6,8.3-1.6s5.73.58,8.3,1.6v-53.29c0-6.89,5.63-12.49,12.55-12.49s12.55,5.6,12.55,12.49v12.14h16.6v-12.14c0-16-13.08-29.02-29.15-29.02Z"/>
  <path class="cls-1" d="m141.13,283.22c0,7.44-6.06,13.47-13.53,13.47s-13.53-6.03-13.53-13.47,6.06-13.47,13.53-13.47,13.53,6.03,13.53,13.47Z"/>
  <path class="cls-1" d="m65.05,250.68c-16.07,0-29.15,13.02-29.15,29.02v51.54c2.57-1.02,5.37-1.6,8.3-1.6s5.73.58,8.3,1.6v-51.54c0-6.89,5.63-12.49,12.55-12.49s12.55,5.6,12.55,12.49v12.14h16.6v-12.14c0-16-13.08-29.02-29.15-29.02Z"/>
  <path class="cls-1" d="m57.65,351.96c0,7.39-6.02,13.39-13.45,13.39s-13.45-5.99-13.45-13.39,6.02-13.39,13.45-13.39,13.45,5.99,13.45,13.39Z"/>
  <path class="cls-1" d="m211.01,236.86c-1.15,0-2.32-.09-3.46-.26-1.68-.26-3.3-.71-4.84-1.33v30.43c0,6.82-5.63,12.36-12.55,12.36s-12.55-5.55-12.55-12.36v-34.41h-16.6v34.41c0,15.83,13.08,28.72,29.15,28.72s29.15-12.88,29.15-28.72v-30.43c-2.61,1.04-5.42,1.59-8.3,1.59Z"/>
  <path class="cls-1" d="m224.48,212.4c1.41,9.18-6.41,16.96-15.63,15.56-5.74-.87-10.44-5.55-11.32-11.26-1.42-9.18,6.41-16.97,15.63-15.56,5.74.88,10.44,5.55,11.32,11.27Z"/>
  <path class="cls-1" d="m127.6,305.54c-2.93,0-5.73-.58-8.3-1.6v31.89c0,6.89-5.63,12.49-12.55,12.49s-12.55-5.6-12.55-12.49v-34.78h-16.6v34.78c0,16,13.08,29.02,29.15,29.02s29.15-13.02,29.15-29.02v-31.89c-2.57,1.02-5.37,1.6-8.3,1.6Z"/>
  <g>
    <path class="cls-1" d="m395.36,296.05c0,8.56-.86,16.47-2.57,23.74-1.71,7.27-4.66,13.6-8.86,18.99-4.19,5.39-9.75,9.59-16.68,12.58-6.93,2.99-15.62,4.49-26.05,4.49-6.16,0-11.81-.56-16.94-1.67-5.13-1.11-9.67-2.44-13.6-3.98-3.94-1.54-7.23-3.16-9.88-4.88-2.65-1.71-4.66-3.25-6.03-4.62l8.21-14.12c1.54,1.37,3.46,2.87,5.77,4.49,2.31,1.63,5.01,3.12,8.09,4.49,3.08,1.37,6.5,2.48,10.27,3.34,3.76.86,7.87,1.28,12.32,1.28,13.17,0,22.88-3.47,29.13-10.39,6.24-6.93,9.37-18.78,9.37-35.55v-120.12h17.45v121.92Z"/>
    <path class="cls-1" d="m538.89,347.38c-4.97,1.37-11.64,2.91-20.02,4.62-8.39,1.71-18.65,2.57-30.8,2.57-9.93,0-18.22-1.46-24.9-4.36-6.67-2.91-12.06-7.01-16.17-12.32-4.11-5.3-7.06-11.72-8.86-19.25-1.8-7.53-2.69-15.83-2.69-24.9v-74.43h16.68v69.04c0,9.41.68,17.37,2.05,23.87,1.37,6.5,3.59,11.77,6.67,15.78,3.08,4.02,7.06,6.93,11.94,8.73,4.88,1.8,10.82,2.69,17.84,2.69,7.87,0,14.71-.43,20.53-1.28,5.81-.85,9.5-1.62,11.04-2.31v-116.53h16.68v128.08Z"/>
    <path class="cls-1" d="m554.01,400c-1.88,0-4.23-.26-7.06-.77s-4.92-1.11-6.29-1.8l2.31-13.6c1.2.34,2.82.68,4.88,1.03,2.05.34,4.02.51,5.9.51,10.09,0,16.81-2.82,20.15-8.47,3.34-5.65,5.01-14.12,5.01-25.41v-132.18h16.68v131.41c0,16.77-3.17,29.17-9.5,37.22-6.33,8.04-17.03,12.06-32.08,12.06Zm45.43-220.73c0,3.94-1.2,7.06-3.59,9.37-2.4,2.31-5.31,3.47-8.73,3.47s-6.33-1.16-8.73-3.47c-2.4-2.31-3.59-5.43-3.59-9.37s1.2-7.06,3.59-9.37c2.39-2.31,5.3-3.47,8.73-3.47s6.33,1.16,8.73,3.47c2.39,2.31,3.59,5.43,3.59,9.37Z"/>
    <path class="cls-1" d="m736.78,347.38c-4.96,1.37-11.64,2.91-20.02,4.62-8.39,1.71-18.65,2.57-30.8,2.57-9.93,0-18.22-1.46-24.9-4.36-6.67-2.91-12.06-7.01-16.17-12.32-4.11-5.3-7.06-11.72-8.86-19.25-1.8-7.53-2.69-15.83-2.69-24.9v-74.43h16.68v69.04c0,9.41.68,17.37,2.05,23.87,1.37,6.5,3.59,11.77,6.67,15.78,3.08,4.02,7.06,6.93,11.93,8.73,4.88,1.8,10.82,2.69,17.84,2.69,7.87,0,14.71-.43,20.53-1.28,5.82-.85,9.5-1.62,11.04-2.31v-116.53h16.68v128.08Z"/>
  </g>
  <g>
    <path class="cls-1" d="m344.46,124.56c-4.58,0-8.83-.82-12.76-2.46-3.93-1.64-7.34-4.03-10.25-7.17-2.9-3.14-5.19-7.02-6.86-11.63-1.67-4.61-2.51-9.89-2.51-15.83s.9-11.22,2.72-15.83c1.81-4.61,4.22-8.49,7.22-11.63,3-3.14,6.49-5.51,10.45-7.12,3.96-1.6,8.09-2.41,12.4-2.41,2.66,0,5.09.17,7.27.51,2.19.34,4.1.77,5.74,1.28,1.64.51,3.04,1.02,4.2,1.54,1.16.51,2.05.97,2.66,1.38l-2.25,6.04c-1.71-1.02-3.88-2.03-6.51-3.02-2.63-.99-5.89-1.49-9.79-1.49-4.44,0-8.32.75-11.63,2.25-3.31,1.5-6.1,3.62-8.35,6.35-2.25,2.73-3.94,5.98-5.07,9.73-1.13,3.76-1.69,7.92-1.69,12.5s.56,8.96,1.69,12.76c1.13,3.79,2.78,7.02,4.97,9.68,2.19,2.66,4.87,4.71,8.04,6.15s6.81,2.15,10.91,2.15c4.51,0,8.28-.43,11.32-1.28,3.04-.85,5.34-1.72,6.92-2.61l1.95,5.94c-.48.34-1.3.73-2.46,1.18-1.16.44-2.63.91-4.41,1.38-1.78.48-3.83.87-6.15,1.18-2.32.31-4.92.46-7.79.46Z"/>
    <path class="cls-1" d="m393.91,68.82c3.48,0,6.44.5,8.86,1.49,2.42.99,4.39,2.36,5.89,4.1,1.5,1.74,2.6,3.81,3.28,6.2.68,2.39,1.02,4.99,1.02,7.79v33.4c-.68.21-1.67.43-2.97.67-1.3.24-2.8.5-4.51.77-1.71.27-3.6.49-5.69.67-2.08.17-4.22.26-6.4.26-2.8,0-5.38-.31-7.74-.92-2.36-.62-4.41-1.59-6.15-2.92-1.74-1.33-3.11-3.04-4.1-5.12-.99-2.08-1.49-4.63-1.49-7.63s.55-5.33,1.64-7.38c1.09-2.05,2.63-3.74,4.61-5.07,1.98-1.33,4.34-2.3,7.07-2.92,2.73-.61,5.7-.92,8.91-.92.96,0,1.96.05,3.02.15,1.06.1,2.08.24,3.07.41.99.17,1.84.34,2.56.51.72.17,1.21.32,1.49.46v-3.28c0-1.84-.14-3.64-.41-5.38-.27-1.74-.87-3.31-1.79-4.71-.92-1.4-2.22-2.53-3.89-3.38-1.67-.85-3.88-1.28-6.61-1.28-3.89,0-6.8.27-8.71.82-1.91.55-3.31.99-4.2,1.33l-.92-5.84c1.16-.55,2.95-1.06,5.38-1.54,2.42-.48,5.34-.72,8.76-.72Zm.61,49.39c2.6,0,4.87-.08,6.81-.26,1.95-.17,3.6-.39,4.97-.67v-18.65c-.75-.34-1.95-.7-3.59-1.08-1.64-.38-3.89-.56-6.76-.56-1.64,0-3.35.12-5.12.36-1.78.24-3.42.75-4.92,1.54-1.5.79-2.73,1.86-3.69,3.23-.96,1.37-1.43,3.18-1.43,5.43,0,1.98.32,3.65.97,5.02.65,1.37,1.57,2.46,2.77,3.28,1.19.82,2.63,1.42,4.3,1.79,1.67.38,3.57.56,5.69.56Z"/>
    <path class="cls-1" d="m429.41,71.9c1.98-.55,4.64-1.16,7.99-1.84,3.35-.68,7.44-1.02,12.3-1.02,4.03,0,7.39.58,10.09,1.74,2.7,1.16,4.85,2.82,6.46,4.97,1.6,2.15,2.75,4.73,3.43,7.74.68,3.01,1.02,6.32,1.02,9.94v29.61h-6.66v-27.46c0-3.76-.26-6.93-.77-9.53-.51-2.6-1.37-4.71-2.56-6.35-1.2-1.64-2.77-2.82-4.71-3.54-1.95-.72-4.39-1.08-7.33-1.08-3.14,0-5.86.17-8.15.51-2.29.34-3.77.65-4.46.92v46.52h-6.66v-51.13Z"/>
    <path class="cls-1" d="m532.52,96.59c0,4.17-.6,7.96-1.79,11.37-1.2,3.42-2.87,6.32-5.02,8.71-2.15,2.39-4.7,4.25-7.63,5.58-2.94,1.33-6.18,2-9.73,2s-6.8-.67-9.73-2c-2.94-1.33-5.48-3.19-7.63-5.58-2.15-2.39-3.83-5.29-5.02-8.71-1.2-3.42-1.79-7.21-1.79-11.37s.6-7.96,1.79-11.37c1.19-3.41,2.87-6.33,5.02-8.76,2.15-2.42,4.7-4.3,7.63-5.64,2.94-1.33,6.18-2,9.73-2s6.8.67,9.73,2c2.94,1.33,5.48,3.21,7.63,5.64s3.82,5.35,5.02,8.76c1.19,3.42,1.79,7.21,1.79,11.37Zm-7.07,0c0-6.62-1.54-11.9-4.61-15.83-3.07-3.93-7.24-5.89-12.5-5.89s-9.43,1.96-12.5,5.89c-3.07,3.93-4.61,9.21-4.61,15.83s1.54,11.89,4.61,15.78,7.24,5.84,12.5,5.84,9.43-1.95,12.5-5.84c3.07-3.89,4.61-9.15,4.61-15.78Z"/>
    <path class="cls-1" d="m546.57,71.9c1.98-.55,4.64-1.16,7.99-1.84,3.35-.68,7.45-1.02,12.3-1.02,4.03,0,7.39.58,10.09,1.74,2.7,1.16,4.85,2.82,6.46,4.97s2.75,4.73,3.43,7.74c.68,3.01,1.02,6.32,1.02,9.94v29.61h-6.66v-27.46c0-3.76-.26-6.93-.77-9.53-.51-2.6-1.37-4.71-2.56-6.35-1.2-1.64-2.77-2.82-4.71-3.54-1.95-.72-4.39-1.08-7.33-1.08-3.14,0-5.86.17-8.14.51-2.29.34-3.78.65-4.46.92v46.52h-6.66v-51.13Z"/>
    <path class="cls-1" d="m612.22,54.07c0,1.57-.48,2.82-1.43,3.74-.96.92-2.12,1.38-3.48,1.38s-2.53-.46-3.48-1.38c-.96-.92-1.43-2.17-1.43-3.74s.48-2.82,1.43-3.74c.96-.92,2.12-1.38,3.48-1.38s2.53.46,3.48,1.38c.96.92,1.43,2.17,1.43,3.74Zm-1.54,68.96h-6.66v-52.97h6.66v52.97Z"/>
    <path class="cls-1" d="m649.53,124.15c-4.1,0-7.72-.65-10.86-1.95-3.14-1.3-5.76-3.16-7.84-5.58-2.08-2.42-3.67-5.33-4.76-8.71-1.09-3.38-1.64-7.12-1.64-11.22s.56-7.96,1.69-11.37c1.13-3.42,2.75-6.35,4.87-8.81,2.12-2.46,4.68-4.35,7.68-5.69,3-1.33,6.39-2,10.14-2,2.87,0,5.55.24,8.04.72,2.49.48,4.42,1.09,5.79,1.84l-1.74,5.74c-1.37-.68-2.9-1.23-4.61-1.64-1.71-.41-4-.62-6.87-.62-5.88,0-10.33,1.9-13.37,5.69-3.04,3.79-4.56,9.17-4.56,16.14,0,3.14.34,6.03,1.03,8.66.68,2.63,1.79,4.88,3.33,6.76,1.54,1.88,3.52,3.35,5.94,4.41,2.42,1.06,5.38,1.59,8.86,1.59,2.87,0,5.28-.32,7.22-.97,1.95-.65,3.36-1.21,4.25-1.69l1.43,5.74c-1.23.68-3.16,1.35-5.79,2-2.63.65-5.38.97-8.25.97Z"/>
    <path class="cls-1" d="m691.67,68.82c3.48,0,6.44.5,8.86,1.49,2.42.99,4.39,2.36,5.89,4.1,1.5,1.74,2.6,3.81,3.28,6.2.68,2.39,1.02,4.99,1.02,7.79v33.4c-.68.21-1.67.43-2.97.67-1.3.24-2.8.5-4.51.77-1.71.27-3.6.49-5.69.67-2.08.17-4.22.26-6.4.26-2.8,0-5.38-.31-7.74-.92-2.36-.62-4.41-1.59-6.15-2.92-1.74-1.33-3.11-3.04-4.1-5.12-.99-2.08-1.49-4.63-1.49-7.63s.55-5.33,1.64-7.38c1.09-2.05,2.63-3.74,4.61-5.07,1.98-1.33,4.34-2.3,7.07-2.92,2.73-.61,5.7-.92,8.92-.92.96,0,1.96.05,3.02.15,1.06.1,2.08.24,3.07.41.99.17,1.84.34,2.56.51.72.17,1.21.32,1.49.46v-3.28c0-1.84-.14-3.64-.41-5.38-.27-1.74-.87-3.31-1.79-4.71-.92-1.4-2.22-2.53-3.89-3.38-1.67-.85-3.88-1.28-6.61-1.28-3.89,0-6.8.27-8.71.82-1.91.55-3.31.99-4.2,1.33l-.92-5.84c1.16-.55,2.95-1.06,5.38-1.54,2.42-.48,5.34-.72,8.76-.72Zm.62,49.39c2.59,0,4.87-.08,6.81-.26,1.95-.17,3.6-.39,4.97-.67v-18.65c-.75-.34-1.95-.7-3.59-1.08-1.64-.38-3.89-.56-6.76-.56-1.64,0-3.35.12-5.12.36-1.78.24-3.42.75-4.92,1.54-1.5.79-2.73,1.86-3.69,3.23-.96,1.37-1.43,3.18-1.43,5.43,0,1.98.32,3.65.97,5.02.65,1.37,1.57,2.46,2.77,3.28,1.19.82,2.63,1.42,4.3,1.79,1.67.38,3.57.56,5.69.56Z"/>
    <path class="cls-1" d="m740.45,123.95c-2.25-.07-4.22-.36-5.89-.87-1.67-.51-3.07-1.3-4.2-2.36-1.13-1.06-1.98-2.42-2.56-4.1-.58-1.67-.87-3.77-.87-6.3V44.74l6.66-1.23v66.6c0,1.64.15,2.96.46,3.94.31.99.77,1.78,1.38,2.36.62.58,1.42,1.01,2.41,1.28.99.27,2.17.51,3.54.72l-.92,5.53Z"/>
  </g>
</svg>